<svg width="284" height="71" viewBox="0 0 284 71" fill="none" xmlns="http://www.w3.org/2000/svg">
<g clip-path="url(#clip0_28237_199)">
<path fill-rule="evenodd" clip-rule="evenodd" d="M144.74 36.5988L145.364 36.7142C145.285 36.5415 145.403 36.2522 145.403 36.2522C144.933 36.329 144.817 36.4735 144.817 36.4735L144.153 36.4926L144.74 36.5988ZM170.336 37.8506C170.258 37.812 170.14 37.7835 169.943 37.7835C169.75 37.7835 169.554 37.8311 169.554 37.8988C169.554 37.9665 169.75 38.0141 169.943 38.0141C170.177 38.0141 170.375 37.9665 170.375 37.8988C170.373 37.88 170.336 37.8697 170.336 37.8506ZM170.32 37.3986C170.33 37.4068 170.336 37.4171 170.336 37.4268C170.332 37.4757 170.208 37.5191 170.022 37.5358V37.6778C170.24 37.6833 170.439 37.7109 170.571 37.754C170.697 37.7956 170.765 37.8463 170.765 37.8985C170.765 38.0023 170.524 38.0861 170.175 38.1122C171.14 38.0937 171.744 38.0721 171.744 38.0721C170.804 38.0236 171.351 37.8891 171.351 37.8891C171.782 37.802 172.602 37.7343 172.602 37.7343C171.625 37.7052 171.079 37.513 170.841 37.3977H170.32V37.3986ZM169.829 38.118C169.454 38.1028 169.164 38.0126 169.164 37.8988C169.164 37.7898 169.432 37.7021 169.788 37.6821V37.5407C169.57 37.5322 169.396 37.49 169.361 37.4359L169.357 37.4369C168.968 37.4651 168.614 37.4651 168.614 37.4651C168.537 37.5133 168.693 37.5328 168.693 37.5328C169.513 37.6772 168.968 37.812 168.968 37.812C168.578 37.8988 168.382 37.8988 168.382 37.8988C167.991 37.9279 167.053 38.1304 167.053 38.1304C168.097 38.1383 169.054 38.1304 169.829 38.118ZM159.12 37.225C159.19 37.225 159.259 37.2195 159.316 37.2095L160.095 37.2927C160.095 37.35 160.252 37.3989 160.449 37.3989C160.57 37.3989 160.677 37.3795 160.74 37.3522L161.401 37.3761C161.444 37.4244 161.578 37.4569 161.737 37.4569C161.918 37.4569 162.1 37.4159 162.124 37.3567L162.677 37.2924C162.742 37.3164 162.839 37.3315 162.951 37.3315C163.144 37.3315 163.342 37.2833 163.342 37.2253L163.694 37.0817C164.359 37.0942 165.026 37.0911 165.687 37.0717C166.741 36.9363 167.602 36.8596 167.602 36.8596C167.287 36.9169 166.974 36.9658 166.778 37.0235C166.581 37.0714 166.399 37.123 166.232 37.1773C165.945 37.2283 165.782 37.3121 165.801 37.3992C165.83 37.4542 165.91 37.507 166.033 37.5531C166.23 37.6108 166.505 37.6402 166.505 37.6402L166.936 37.7364C166.583 37.8041 165.801 37.8515 165.801 37.8515C165.37 37.8909 164.786 37.8232 164.786 37.8232C163.418 37.7464 162.95 37.9 162.95 37.9C162.675 37.9768 162.167 37.9871 162.167 37.9871L162.401 38.0739C161.892 38.1125 161.621 38.0642 161.621 38.0642C161.581 37.9003 161.933 37.7367 161.933 37.7367C161.776 37.4769 159.586 37.5246 159.586 37.5246L159.041 37.3986L158.923 37.3695L157.673 37.0805C157.673 37.1673 157.517 37.2927 157.324 37.3989C157.166 37.4851 156.97 37.5625 156.97 37.5625L156.502 37.5042C156.591 37.4724 156.656 37.4365 156.696 37.3989C157.085 37.1673 157.359 36.8398 157.359 36.8398C157.593 36.8398 157.791 36.8498 157.945 36.8593C158.064 36.8784 158.142 36.8884 158.142 36.8884C158.234 36.899 158.332 36.9093 158.439 36.9197L158.87 37.0705C158.83 37.0884 158.809 37.1084 158.809 37.1288C158.807 37.1864 158.923 37.225 159.12 37.225ZM163.483 37.0751L163.255 37.1549C163.191 37.1279 163.076 37.1109 162.95 37.1097C162.753 37.1097 162.597 37.1573 162.597 37.225C162.597 37.2341 162.6 37.2435 162.61 37.2517L162.111 37.3091C162.058 37.2638 161.898 37.2244 161.737 37.2244C161.545 37.2244 161.387 37.2821 161.387 37.3397L160.792 37.3145C160.799 37.3072 160.801 37.2997 160.801 37.2924C160.801 37.2347 160.642 37.1761 160.449 37.1761C160.301 37.1761 160.18 37.2083 160.128 37.2487L159.438 37.1719C159.461 37.1582 159.472 37.1437 159.471 37.1288C159.471 37.0805 159.315 37.0329 159.118 37.0329C159.087 37.0326 159.056 37.0338 159.028 37.0368L158.843 36.9552H158.841C159.836 37.0353 161.07 37.0905 161.07 37.0905H161.93L162.205 36.9843C162.56 37.0332 163.019 37.0611 163.483 37.0751ZM158.852 35.4303C158.884 35.44 158.913 35.4491 158.945 35.4573L158.896 35.4791C158.87 35.4749 158.839 35.4725 158.809 35.4719C158.652 35.4719 158.534 35.5104 158.534 35.5493L158.497 35.5395L158.182 35.4527L158.067 35.4239L157.363 35.2409C156.542 34.9714 155.292 35.2409 155.292 35.2409L155.098 35.2023C155.76 35.1058 155.177 34.9808 155.177 34.9808L156.465 34.1619L156.112 34.0559C156.74 33.7379 155.411 33.7284 155.411 33.7284C155.018 33.4395 154.315 33.5746 154.315 33.5746C154.082 33.295 153.22 33.4395 153.22 33.4395C152.909 33.2471 152.166 33.3624 152.166 33.3624L152.202 32.9095L151.345 32.919L150.405 32.9095L150.484 33.3718C149.548 33.2565 149.388 33.4874 149.388 33.4874C148.296 33.3333 148.296 33.6319 148.296 33.6319C147.396 33.5642 147.435 33.7764 147.435 33.7764C146.225 33.8052 146.381 34.0654 146.381 34.0654L147.317 34.8551C147.084 34.9996 144.31 35.8376 144.31 35.8376L143.136 35.7511L143.057 35.7031C143.331 35.7417 143.527 35.7223 143.527 35.7223C143.411 35.6257 143.565 35.4333 143.565 35.4333C143.918 35.0579 143.293 34.9228 143.293 34.9228C143.331 34.7686 142.901 34.5859 142.901 34.5859C143.487 34.4029 142.628 34.2198 142.628 34.2198L142.509 34.1713L142.471 33.7764C142.315 33.7764 142.236 33.7281 142.236 33.7281C142.002 33.5642 141.572 33.6705 141.572 33.6705C141.26 33.4975 140.751 33.6319 140.751 33.6319C140.32 33.4874 139.89 33.6319 139.89 33.6319L139.539 33.3524L138.367 33.4677L138.759 33.7761C137.898 33.7275 138.172 33.9397 138.172 33.9397C137.429 33.9494 137.781 34.113 137.781 34.113C137.078 34.1324 137.351 34.3252 137.351 34.3252L138.132 34.6429C137.506 34.816 138.094 34.9319 138.094 34.9319C138.289 35.0187 138.525 35.0187 138.525 35.0187C138.172 35.2791 138.642 35.5487 138.642 35.5487C138.133 35.6931 137.39 35.8085 136.727 35.895C135.75 36.0109 134.889 36.0686 134.889 36.0686C133.365 36.1557 130.357 36.3961 130.357 36.3961C129.301 36.4632 127.622 36.5885 127.622 36.5885C125.511 36.743 124.964 36.5794 124.964 36.5794C124.456 36.5017 124.847 36.2996 124.847 36.2996C125.355 36.0492 126.411 35.9912 126.411 35.9912C127.154 36.1074 127.426 36.1742 127.426 36.1742C127.895 36.2905 128.716 36.2804 128.716 36.2804L128.756 36.2419C129.107 36.2519 129.342 36.2228 129.342 36.2228C129.107 36.1651 129.107 36.0974 129.107 36.0974C129.107 36.0495 128.833 35.9727 128.833 35.9727L134.265 35.9147C134.462 35.9059 134.617 35.9059 134.774 35.8956C136.648 35.8091 137.079 35.7031 137.079 35.7031C138.368 35.4521 137.821 35.0381 137.821 35.0381C137.117 34.6338 135.75 34.6141 135.75 34.6141C134.695 34.5467 133.914 34.5856 133.914 34.5856C133.328 34.5953 132.118 34.5182 132.118 34.5182C132.077 34.5756 132.585 34.7586 132.585 34.7586C132.231 34.7665 131.88 34.7389 131.609 34.6818C130.983 34.5373 129.967 34.6047 129.967 34.6047C130.124 34.6818 131.063 34.8748 131.063 34.8748C130.515 34.8842 129.032 34.7304 129.032 34.7304C129.305 35.0485 130.79 35.2697 130.79 35.2697C132.549 35.4527 134.072 35.2603 134.072 35.2603C134.814 35.145 135.557 35.077 135.557 35.077C135.668 35.0645 135.788 35.0582 135.91 35.0582C136.292 35.0582 136.628 35.1216 136.729 35.212C136.652 35.5395 135.674 35.5493 135.674 35.5493C132.86 35.6934 129.108 35.5972 129.108 35.5972C129.381 35.5104 129.421 35.2888 129.421 35.2888L129.108 35.3083C127.468 35.2697 127.037 35.3565 127.037 35.3565C126.45 35.4433 126.177 35.6264 126.177 35.6264C125.435 35.7034 124.848 35.7994 124.417 35.8959C123.324 36.1566 123.207 36.445 123.207 36.445C123.128 36.7919 123.91 36.8404 123.91 36.8404C123.207 37.1767 124.261 37.3024 124.261 37.3024C124.73 37.2162 124.925 37.1194 124.925 37.1194C125.863 36.9467 128.599 36.8016 128.599 36.8016C128.051 36.9081 127.737 37.2253 127.737 37.2253C127.269 37.2638 126.487 37.1962 126.487 37.1962C126.058 37.1871 126.058 37.2739 126.058 37.2739L125.862 37.3889L125.589 37.6014C123.908 37.5819 124.143 37.8223 124.143 37.8223L123.908 38.4676C124.299 38.7083 124.924 38.6701 124.924 38.6701V38.4294H125.353C125.862 38.6892 126.644 38.7472 126.644 38.7472H126.879C127.151 38.728 127.269 38.8248 127.269 38.8248L127.543 38.8337L127.581 38.6701L127.892 38.6609C128.09 38.6804 128.205 38.7572 128.205 38.7572H128.439C128.517 38.7183 128.557 38.6127 128.557 38.6127C128.87 38.5641 128.79 38.3914 128.79 38.3914C129.417 38.3623 130.081 38.4206 130.081 38.4206L130.043 38.5641C130.51 38.7572 131.098 38.786 131.098 38.786C131.489 38.8145 132.074 38.8337 132.779 38.8437C133.991 38.8628 135.514 38.8528 136.921 38.8437C138.448 38.8245 139.973 38.7957 141.494 38.7566C141.65 38.8142 141.728 38.8051 141.728 38.8051C142.391 38.8625 143.134 38.6889 143.134 38.6889L142.901 38.8051C143.408 38.7951 143.956 38.7083 143.956 38.7083C144.092 38.7541 144.284 38.7878 144.503 38.8051L144.621 38.776L144.778 38.8333C145.089 38.7948 145.285 38.6606 145.285 38.6606C145.639 38.7374 146.146 38.718 146.146 38.718L146.304 38.7757L146.418 38.7271C146.651 38.7666 147.082 38.8142 147.082 38.8142C147.553 38.6698 147.358 38.4582 147.358 38.4582L147.475 38.5058L147.59 38.3905C147.823 38.4479 148.218 38.4479 148.218 38.4479C147.475 38.5247 147.903 38.6603 147.903 38.6603C147.996 38.6983 148.132 38.7283 148.296 38.7462C148.552 38.7387 148.791 38.7811 148.843 38.8434C149.429 38.911 149.781 38.7563 149.781 38.7563L149.86 38.6409C149.742 38.5732 149.742 38.4673 149.742 38.4673L149.86 38.5924L150.053 38.6215L151.382 38.8813L152.517 38.65C153.142 38.7563 154.002 38.7563 154.002 38.7563C154.314 38.7563 154.081 38.6603 154.081 38.6603C155.098 38.8625 156.62 38.8142 156.62 38.8142C156.853 38.7666 156.698 38.7374 156.698 38.7374C156.974 38.7083 157.442 38.8051 157.442 38.8051C157.831 38.8719 158.417 38.8142 158.417 38.8142C158.38 38.7666 158.184 38.7566 158.184 38.7566C158.459 38.7566 158.303 38.6606 158.303 38.6606C158.573 38.6698 158.81 38.7468 158.81 38.7468C159.043 38.8242 159.475 38.8051 159.475 38.8051L159.512 38.7566C159.786 38.8051 160.408 38.8142 160.408 38.8142C160.568 38.7757 160.449 38.718 160.449 38.718C163.263 38.9302 167.442 38.8907 167.442 38.8907C172.876 38.8819 173.619 38.6215 173.619 38.6215C173.815 38.5632 173.697 38.4964 173.697 38.4964V38.4197C173.971 38.3802 174.401 38.4099 174.401 38.4099L174.008 38.6121L173.894 38.6798C174.829 38.9396 176.236 38.6506 176.236 38.6506V38.5638C176.512 38.5353 176.744 38.4582 176.744 38.4582L177.372 38.4967C177.45 38.5839 177.215 38.6798 177.215 38.6798C178.191 38.7468 178.541 38.4967 178.541 38.4967L178.036 37.8509C177.254 37.6296 175.847 37.6678 175.847 37.6678L175.807 37.5039C175.728 37.4466 175.458 37.408 175.221 37.3986L174.918 37.3719L174.635 37.3986C174.203 37.4077 173.577 37.4077 173.577 37.4077V37.3986L173.656 37.1764V36.9266L173.577 36.8395L174.401 36.8687C175.025 36.9354 176.472 36.9354 176.472 36.9354C176.94 36.984 176.94 37.0993 176.94 37.0993L176.784 37.2347C178.112 37.2056 177.956 36.8395 177.956 36.8395C178.892 36.6465 178.658 36.1266 178.658 36.1266C178.54 36.0015 178.346 35.9241 178.226 35.895L178.19 35.8862C178.19 35.5581 176.86 35.4136 176.86 35.4136C176.627 35.3653 176.353 35.3653 176.353 35.3653C176.041 35.3465 175.61 35.2209 175.61 35.2209C175.103 35.4518 175.531 35.6251 175.531 35.6251C174.749 35.5866 170.84 35.7793 170.84 35.7793C169.904 35.8373 168.341 35.7119 168.341 35.7119C167.362 35.5769 167.521 35.4039 167.521 35.4039C167.714 35.1243 168.653 35.1629 168.653 35.1629H168.927C169.749 35.1243 170.335 35.2014 170.335 35.2014C171.975 35.3939 174.905 35.2014 174.905 35.2014C176.311 35.0664 176.704 34.6138 176.704 34.6138C175.765 34.826 174.868 34.7874 174.868 34.7874C174.669 34.7971 174.474 34.8102 174.281 34.826C174.438 34.6621 175.217 34.585 175.217 34.585C174.203 34.479 173.109 34.6621 173.109 34.6621C172.562 34.8065 171.349 34.8548 171.349 34.8548C172.246 34.768 172.718 34.5273 172.718 34.5273C172.131 34.6138 171.077 34.5944 171.077 34.5944C169.474 34.5173 167.716 34.8736 167.716 34.8736C166.112 35.2397 166.894 35.6443 166.894 35.6443C167.091 35.7596 167.559 35.8467 168.066 35.8947C168.81 35.9818 169.589 36.0009 169.589 36.0009C171.271 36.0492 174.711 35.9526 174.711 35.9526C175.023 35.9332 175.375 35.9332 175.375 35.9332C174.748 36.0492 174.632 36.3093 174.632 36.3093C175.257 36.2519 175.725 36.2519 175.725 36.2519L175.688 36.2905C176.432 36.2613 177.053 36.2905 177.053 36.2905C177.446 36.2996 177.525 36.2137 177.525 36.2137C177.993 36.3864 177.053 36.5797 177.053 36.5797C176.508 36.7142 175.297 36.6079 175.297 36.6079C174.632 36.5312 172.911 36.5017 172.911 36.5017C172.599 36.4058 169.043 36.2325 169.043 36.2325C168.846 36.1454 168.496 36.1839 168.496 36.1839L168.182 36.1742C167.871 35.9912 167.168 36.0974 167.168 36.0974C166.66 36.0783 165.839 35.963 165.368 35.895C165.134 35.8664 165.017 35.8376 165.017 35.8376C166.893 35.3271 166.775 34.7783 166.775 34.7783C166.542 33.9883 163.924 33.8632 163.924 33.8632C163.534 33.6319 162.284 33.6128 162.284 33.6128L162.205 33.6611L162.321 33.7284C162.284 33.7767 162.516 33.8635 162.516 33.8635L162.009 33.892L158.843 33.4395C158.064 33.3915 158.375 33.5548 158.375 33.5548L158.532 33.6128L161.268 34.1424C160.993 34.2772 160.057 34.4508 160.057 34.4508L159.704 34.4699L159.273 34.5856L159.314 34.7398C159.117 34.7783 158.686 34.7783 158.686 34.7783L158.649 34.8748C158.921 34.9714 159.703 34.9714 159.703 34.9714L160.327 35.1252C160.524 35.1544 160.68 35.1158 160.68 35.1158L161.226 34.9616L161.968 34.8751C162.166 34.904 162.519 34.9137 162.519 34.9137C162.01 34.9623 161.465 35.145 161.465 35.145C161.034 35.1158 160.328 35.1544 160.328 35.1544L160.251 35.2603L160.228 35.2858L160.057 35.2603C159.783 34.9811 158.922 35.1544 158.922 35.1544C158.636 35.2303 158.607 35.3462 158.852 35.4303ZM158.869 35.6318C158.964 35.6212 159.04 35.5881 159.04 35.5487C159.04 35.5374 159.03 35.5265 159.011 35.5165L159.064 35.484C159.187 35.5086 159.339 35.5216 159.497 35.5216C159.9 35.5183 160.056 35.375 160.056 35.375H160.153L160.056 35.4904C159.663 35.5484 159.314 35.7408 159.314 35.7408L158.869 35.6318ZM159.114 35.3565C158.905 35.2494 159.353 35.202 159.353 35.202C159.9 35.1826 159.784 35.3559 159.784 35.3559C159.637 35.4011 159.519 35.4181 159.422 35.42C159.209 35.4242 159.117 35.3574 159.114 35.3565ZM137.781 37.3886C137.468 37.4563 136.92 37.5525 136.217 37.5622L135.904 37.6866L136.647 37.7352L136.803 37.7543L137.468 37.8029C137.468 37.8029 137.506 37.6967 138.015 37.7158C138.015 37.7158 138.367 37.4842 139.773 37.5619C139.773 37.5619 140.008 37.5425 140.32 37.581C140.438 37.6005 140.555 37.6199 140.671 37.6481L140.515 37.5231C140.515 37.5231 140.671 37.4654 141.061 37.4842C141.061 37.4842 140.905 37.4457 140.788 37.3883C140.623 37.3318 140.528 37.2648 140.515 37.1953C140.502 37.126 140.983 37.1476 141.453 37.167V37.0608H141.725L141.218 36.984C141.218 36.984 139.927 37.3397 137.504 37.167C137.025 37.1336 136.565 37.0851 136.137 37.0225C135.708 36.96 136.607 37.3115 138.092 37.3018C138.094 37.3018 137.977 37.3403 137.781 37.3886ZM131.489 37.3886C132.27 37.4463 133.64 37.4757 133.64 37.4757C133.521 37.5039 133.404 37.5331 133.287 37.5525C132.859 37.6393 132.507 37.6587 132.507 37.6587C132.273 37.7546 132.391 37.9289 132.391 37.9289C132.507 37.9674 132.859 37.9956 133.172 38.0248C133.563 38.0633 133.952 38.0925 133.952 38.0925C133.476 38.1164 132.984 38.1164 132.507 38.0925C132.076 38.0827 131.805 38.0533 131.805 38.0533L131.999 37.9571C131.843 37.7064 130.318 37.6778 130.318 37.6778L130.397 37.5625C130.592 37.5042 130.789 37.4375 130.866 37.3889C130.916 37.3713 130.954 37.3519 130.983 37.3315C131.061 37.351 131.257 37.3701 131.453 37.3889H131.489V37.3886ZM159.316 38.1881C159.198 38.2075 159.12 38.2269 159.12 38.2649C159.12 38.2649 159.198 38.3225 159.706 38.3611C159.706 38.3611 159.784 38.2554 159.666 38.1398C159.664 38.1398 159.471 38.1589 159.316 38.1881ZM141.494 38.0141L141.767 37.995C141.767 37.995 141.494 37.9374 141.455 37.8988C141.455 37.8988 141.455 37.822 141.104 37.7543L141.143 37.822V37.9182L141.26 37.9474V38.0242L141.494 38.0141ZM142.745 38.352L142.784 38.4964L143.293 38.3611C143.21 38.3614 143.134 38.3504 143.096 38.3325C142.901 38.294 142.784 38.2366 142.784 38.2366L142.745 38.352ZM144.511 37.3922C144.809 37.384 145.057 37.3889 145.198 37.4308C145.194 37.3695 145.304 37.3079 145.676 37.2924C145.676 37.2924 144.854 37.2535 144.112 37.1858C143.644 37.1473 143.174 37.099 143.018 37.0414L142.666 37.0705L142.391 37.099V37.1282C142.391 37.1282 143.134 37.1564 143.525 37.2344V37.1949C143.525 37.1953 144.236 37.2283 144.511 37.3922ZM146.573 37.7738C146.573 37.7543 146.613 37.7352 146.613 37.7061L147.199 37.8606C147.199 37.8606 147.313 37.9568 147.081 38.0145C147.081 38.0145 146.966 37.9862 146.81 37.9668C146.711 37.9547 146.604 37.9483 146.494 37.9477L146.457 37.8223C146.457 37.822 146.536 37.8029 146.573 37.7738ZM99.0534 32.5144C99.0534 32.5144 104.877 33.2465 105.579 33.3909C106.322 33.5354 105.931 33.6319 105.931 33.6319C105.931 33.6319 105.658 33.7281 104.993 33.7667C104.327 33.7952 104.525 33.9303 104.525 33.9303L104.447 37.35C107.183 38.0145 109.762 37.6584 109.762 37.6584C110.74 37.5816 110.623 37.3695 110.623 37.3695C110.623 37.3695 110.819 34.1525 110.74 34.0462C110.661 33.9309 110.272 33.9309 110.272 33.9309C110.272 33.9309 107.849 33.5548 107.457 33.4878C107.026 33.4207 107.496 33.3147 107.496 33.3147C107.496 33.3147 111.599 32.6115 112.187 32.4767C112.773 32.3514 113.242 32.4282 113.242 32.4282C113.242 32.4282 120.003 33.3627 120.783 33.5072C121.565 33.6517 121.175 33.6996 121.175 33.6996L119.26 34.1716C118.869 34.2681 119.064 34.3546 119.064 34.3546L118.986 37.5143C118.478 38.3231 113.319 38.4394 113.319 38.4394C107.105 38.4585 104.214 37.8035 104.214 37.8035C101.751 37.4277 98.8985 37.6876 98.8985 37.6876C95.265 37.9956 94.9903 38.5738 94.9903 38.5738C94.8721 38.9884 96.7488 39.1906 96.7488 39.1906C99.055 39.5566 102.415 39.3251 102.415 39.3251C105.268 39.0847 109.684 38.7183 109.684 38.7183C112.458 38.5738 114.646 38.6892 114.646 38.6892C117.147 38.8249 118.125 39.1138 118.125 39.1138C119.727 39.5181 119.61 40.038 119.61 40.038C119.727 41.1753 114.06 41.5602 114.06 41.5602C111.521 41.6855 110.818 41.5411 110.818 41.5411C109.019 41.4442 110.934 41.3966 110.934 41.3966C110.934 41.3966 107.651 41.4442 111.208 41.4057C114.764 41.3772 115.156 40.9537 115.156 40.9537C116.446 40.3849 114.453 40.2887 114.453 40.2887C111.717 40.1928 108.748 40.7416 108.748 40.7416C102.104 41.4734 97.0634 40.8666 97.0634 40.8666C91.9046 40.3752 92.5691 39.4313 92.5691 39.4313C92.6857 38.2081 95.8128 37.7267 95.8128 37.7267L95.618 33.9409C95.4614 33.8444 95.0701 33.8159 95.0701 33.8159C95.0701 33.8159 92.9204 33.6037 92.5691 33.4884C92.256 33.3727 92.7639 33.3245 92.7639 33.3245L97.7278 32.5153C98.3107 32.3125 99.0534 32.5144 99.0534 32.5144ZM2.75929 31.9365C2.01662 31.8114 2.83761 31.744 2.83761 31.744L10.3025 30.3952H30.0367C34.2962 30.4914 33.9449 31.8399 33.9449 31.8399L33.8666 36.8101C26.9494 37.1376 23.6274 38.5829 23.6274 38.5829C17.1782 38.1304 6.1196 38.5347 6.1196 38.5347C5.14222 38.5538 5.80658 38.3708 5.80658 38.3708C9.63655 36.7139 16.9834 36.7624 16.9834 36.7624C17.4577 36.76 17.9224 36.763 18.3744 36.7703L18.4128 31.9868L2.75929 31.9365ZM12.6072 32.206C14.0526 32.0424 13.7794 32.2834 13.7794 32.2834V35.0475C13.6629 36.2131 9.94958 36.8492 9.94958 36.8492C8.85558 37.2156 4.67428 37.639 4.67428 37.639C3.22883 37.7738 4.08812 37.4268 4.08812 37.4268C5.45525 36.9266 5.45525 36.5694 5.45525 36.5694V33.2465C5.45525 33.1502 5.61177 33.1117 5.61177 33.1117L12.6072 32.206ZM19.0356 36.784C22.4519 36.8687 24.9578 37.167 24.9578 37.167L24.9067 35.0299L24.854 35.0397C24.846 35.0372 22.1117 34.1476 19.0485 35.0724L19.0356 36.784ZM24.9003 34.8132L24.8795 33.9169C23.8334 34.1582 21.3946 34.564 19.0563 33.8128L19.0485 34.8275C21.623 34.1834 23.9388 34.5847 24.9003 34.8132ZM24.8731 33.6832L24.838 32.1869C25.1111 31.9365 23.7056 32.0038 23.7056 32.0038L19.0723 31.989L19.0611 33.5239C21.6821 34.5944 24.6048 33.764 24.8731 33.6832ZM78.8081 31.3394C78.8081 31.3394 87.4056 30.6556 88.4996 30.5882C89.6319 30.5208 89.5553 30.6556 89.5553 30.6556C89.5553 30.6556 89.322 36.6853 89.517 36.8975C89.7118 37.1097 90.103 37.052 90.103 37.052C90.103 37.052 92.0963 37.3989 92.526 37.4466C92.9955 37.4948 92.7607 37.6102 92.7607 37.6102L87.915 38.5353C87.915 38.5353 80.0204 37.6778 79.3959 37.5819C78.6149 37.4466 79.1228 37.3698 79.1228 37.3698L80.5299 37.0229C80.5299 37.0229 80.763 32.0913 80.3734 31.8311C79.9821 31.5707 78.7316 31.4648 78.7316 31.4648C78.4568 31.3586 78.8081 31.3394 78.8081 31.3394ZM69.1567 32.3605C69.4299 32.5241 70.1326 32.4955 70.1326 32.4955C73.2597 32.1872 74.5104 31.4551 74.5104 31.4551C75.2913 30.7327 73.4547 30.5403 73.4547 30.5403C71.8128 30.2993 70.6022 30.4917 70.6022 30.4917C68.7255 30.7421 68.2176 31.2241 68.2176 31.2241C67.7497 31.8597 69.1567 32.3605 69.1567 32.3605ZM67.7497 32.688C67.7497 32.688 62.6692 33.4586 62.2779 33.6031C61.8866 33.7476 62.2013 33.8156 62.2013 33.8156C62.2013 33.8156 64.3893 34.1525 64.9754 34.2101C65.5999 34.2584 65.3652 34.3355 65.3652 34.3355L65.5217 36.8398C65.5999 36.9075 65.5217 37.0805 65.5217 37.0805C65.5217 37.0805 64.6608 37.2541 64.1929 37.3504C63.6466 37.4657 64.0746 37.5819 64.0746 37.5819L71.931 38.5547C71.931 38.5547 77.2446 37.6108 77.7141 37.5625C78.1821 37.5143 77.7141 37.418 77.7141 37.418C77.7141 37.418 75.4079 37.0905 75.0182 37.0423C74.6284 36.9937 74.785 36.8978 74.785 36.8978C74.785 36.8978 74.4719 34.4217 74.7068 34.2098C74.9016 34.0077 75.1747 34.0748 75.1747 34.0748C75.1747 34.0748 75.8775 34.0268 76.5035 33.9303C77.0897 33.8341 76.5434 33.7473 76.5434 33.7473C76.5434 33.7473 69.235 32.8036 68.6888 32.688C68.1393 32.5723 67.7497 32.688 67.7497 32.688ZM35.3711 36.8586C35.3519 36.8395 35.9764 38.3134 43.6362 38.5544L48.7167 37.5434C48.7167 37.5434 48.9898 37.4271 49.381 37.5234L57.9785 38.5544L63.2154 37.5434C63.2154 37.5434 63.4502 37.4271 63.0588 37.3118L59.4238 36.7142V34.2578C59.4238 34.2578 59.3855 34.1424 59.6969 34.1233L61.104 33.8441C61.104 33.8441 61.3388 33.7476 60.8708 33.6225C60.4396 33.4877 51.8822 32.4476 51.8822 32.4476C51.8822 32.4476 51.5692 32.3322 50.7866 32.4667C50.7866 32.4667 41.4466 33.3915 37.7731 34.5759C37.7747 34.5759 34.8441 35.0381 35.3711 36.8586ZM42.6987 36.0692C42.9334 36.1745 41.135 35.4427 41.9959 34.6433C41.9959 34.6433 42.1142 33.9403 45.4346 33.584L49.9289 34.3063L49.8507 37.1573C49.8507 37.1573 49.2645 37.3986 47.8191 37.2347C47.8191 37.2347 44.1057 36.7822 42.6987 36.0692ZM258.07 32.7648C258.07 32.7648 252.992 33.5257 252.598 33.6799C252.209 33.8244 252.52 33.8917 252.52 33.8917C252.52 33.8917 254.71 34.2286 255.296 34.2772C255.92 34.3258 255.686 34.412 255.686 34.412L255.842 36.9163C255.92 36.984 255.842 37.1567 255.842 37.1567C255.842 37.1567 254.98 37.3206 254.514 37.4174C253.967 37.5328 254.398 37.6481 254.398 37.6481L262.253 38.6306C262.253 38.6306 267.568 37.6867 268.036 37.6287C268.504 37.581 268.036 37.4842 268.036 37.4842C268.036 37.4842 265.768 37.1567 265.34 37.109C264.948 37.0608 265.104 36.9646 265.104 36.9646C265.104 36.9646 264.792 34.4891 265.025 34.2772C265.222 34.0848 265.497 34.1424 265.497 34.1424C265.497 34.1424 266.198 34.0942 266.826 33.998C267.412 33.9018 266.862 33.825 266.862 33.825C266.862 33.825 259.554 32.8807 259.007 32.7651C258.5 32.6494 258.07 32.7648 258.07 32.7648ZM180.377 31.9459C179.167 31.7823 180.027 31.7049 180.027 31.7049L186.123 30.7418C186.434 30.6744 186.709 30.7709 186.709 30.7709L192.259 31.5704C192.259 31.5704 199.761 30.5879 200.269 30.5111C200.581 30.4626 200.856 30.5302 200.856 30.5302L207.189 31.3971L213.558 30.4146C214.26 30.2701 214.455 30.3664 214.455 30.3664L221.92 31.4454C222.545 31.5416 222.27 31.5704 222.27 31.5704V36.5603C222.545 37.1761 224.657 37.4177 224.657 37.4177C225.243 37.5331 224.968 37.6202 224.968 37.6202L219.221 38.6312C214.26 38.2166 213.792 37.225 213.792 37.225V32.4564C213.674 32.2928 213.206 32.2542 213.206 32.2542L209.368 31.7723L209.398 33.8914H213.518L209.417 35.3486L209.442 37.103L212.309 37.581C212.698 37.6967 212.076 37.7158 212.076 37.7158L206.134 38.6306L197.302 37.4748C196.482 37.3394 197.106 37.2626 197.106 37.2626L199.021 36.9643V35.4324H194.815L194.832 37.3989L196.249 37.6199C196.68 37.7352 196.17 37.812 196.17 37.812L190.269 38.6306L182.57 37.6287C181.906 37.5224 182.607 37.4369 182.607 37.4369L184.797 37.1285V32.7168L180.575 31.9656L180.377 31.9459ZM208.839 31.7128C207.673 31.6235 207.853 31.802 207.853 31.802L207.931 33.7379V33.892H208.871L208.839 31.7128ZM208.889 35.433H207.931V36.8492C207.968 36.8878 208.439 36.9354 208.439 36.9354L208.91 37.0147L208.889 35.433ZM194.814 35.1589L198.277 33.8917H199.02V32.4564C198.904 32.3796 198.473 32.3025 198.473 32.3025L194.792 31.8305L194.814 35.1589ZM194.263 31.7996C193.184 31.8053 193.121 31.985 193.121 31.985L193.04 37.1288C193.04 37.1573 193.392 37.1764 193.392 37.1764L194.3 37.3179L194.263 31.7996ZM225.7 36.8586C225.68 36.8395 226.304 38.3134 233.966 38.5544L239.045 37.5434C239.045 37.5434 239.319 37.4271 239.71 37.5234L248.307 38.5544L253.543 37.5434C253.543 37.5434 253.777 37.4271 253.387 37.3118L249.754 36.7142V34.2578C249.754 34.2578 249.717 34.1424 250.029 34.1233L251.435 33.8441C251.435 33.8441 251.669 33.7476 251.202 33.6225C250.771 33.4877 242.212 32.4476 242.212 32.4476C242.212 32.4476 241.9 32.3322 241.117 32.4667C241.117 32.4667 231.777 33.3915 228.103 34.5759C228.101 34.5759 225.173 35.0381 225.7 36.8586ZM233.027 36.0692C233.261 36.1745 231.464 35.4427 232.326 34.6433C232.326 34.6433 232.44 33.9403 235.763 33.584L240.258 34.3063L240.179 37.1573C240.179 37.1573 239.593 37.3986 238.146 37.2347C238.146 37.2347 234.434 36.7822 233.027 36.0692ZM269.13 31.3394C269.13 31.3394 277.685 30.6556 278.822 30.5882C279.914 30.5208 279.876 30.6556 279.876 30.6556C279.876 30.6556 279.642 36.753 279.836 36.9652C280.033 37.1764 280.422 37.1288 280.422 37.1288C280.422 37.1288 282.415 37.4757 282.846 37.5234C283.314 37.5716 283.079 37.687 283.079 37.687L278.236 38.6121C278.236 38.6121 270.34 37.7546 269.716 37.649C268.934 37.5237 269.441 37.4375 269.441 37.4375L270.849 37.0999C270.849 37.0999 271.081 32.0818 270.692 31.8214C270.302 31.5613 269.052 31.4654 269.052 31.4654C268.779 31.3488 269.13 31.3394 269.13 31.3394ZM259.478 32.4376C259.752 32.6015 260.453 32.5723 260.453 32.5723C263.582 32.2542 264.832 31.5225 264.832 31.5225C265.611 30.8095 263.775 30.6171 263.775 30.6171C262.135 30.3667 260.925 30.5685 260.925 30.5685C259.045 30.8189 258.542 31.3009 258.542 31.3009C258.07 31.9365 259.478 32.4376 259.478 32.4376Z" fill="black"/>
<path fill-rule="evenodd" clip-rule="evenodd" d="M138.759 33.5073L139.306 33.4399V33.5365L139.501 33.4882L139.734 33.623L139.423 33.6327L139.62 33.6809C140.048 33.758 139.776 33.8254 139.776 33.8254L139.579 33.864C138.953 33.9213 139.149 33.6809 139.149 33.6809L138.953 33.7289L138.719 33.5844H139.033L138.759 33.5073Z" fill="white"/>
<path fill-rule="evenodd" clip-rule="evenodd" d="M138.172 34.1134C138.641 34.1231 138.68 34.2099 138.68 34.2099C138.718 34.0463 139.226 34.1908 139.226 34.1908C139.061 34.2033 138.912 34.2266 138.797 34.2579C138.797 34.3544 139.383 34.3544 139.383 34.3544C139.89 34.2867 139.813 34.2099 139.813 34.2099C139.89 34.1037 139.383 34.1617 139.383 34.1617L139.186 34.0558L139.499 34.0463V34.0078L139.226 33.9689L140.087 33.8633L139.969 33.9498L140.047 33.9689L140.241 33.9113L140.399 34.0655C140.007 34.0463 140.164 34.1328 140.164 34.1328C140.385 34.192 140.563 34.1975 140.692 34.1847C140.801 34.1717 140.891 34.1498 140.944 34.1231C141.179 34.0558 140.906 34.0266 140.906 34.0266C140.595 34.0551 140.555 34.0843 140.555 34.0843C140.399 33.8821 140.827 33.9204 140.827 33.9204C140.712 33.8242 140.827 33.7759 140.827 33.7759C141.141 33.8145 141.179 33.8912 141.179 33.8912C141.647 33.7659 141.725 33.9007 141.725 33.9007C141.101 33.9298 141.374 34.0163 141.374 34.0163C141.521 34.0734 141.636 34.0825 141.727 34.0682C141.924 34.0363 141.998 33.89 141.998 33.89C141.647 33.7647 140.748 33.7422 140.748 33.755L140.709 33.8333L140.24 33.8524L140.162 33.7947L140.045 33.7853V33.7368C141.178 33.6308 142.195 33.8621 142.195 33.8621L142.234 34.2473C140.553 34.3052 138.481 34.6422 138.481 34.6422L137.661 34.2955C137.936 34.0163 138.99 33.8621 138.99 33.8621L139.146 33.9007L138.949 33.9583L139.028 34.0257L138.56 34.1222L138.169 34.0737C138.001 34.1471 137.839 34.2181 137.895 34.2955L138.169 34.44C138.717 34.4977 138.522 34.3341 138.522 34.3341C138.366 34.2855 138.169 34.3914 138.169 34.3914C137.818 34.2278 138.287 34.2373 138.287 34.2373C138.093 34.1908 138.172 34.1134 138.172 34.1134ZM125.471 37.6391C124.964 37.9666 125.236 38.3903 125.236 38.3903H124.923V37.8604C124.024 37.8121 124.416 37.7256 124.416 37.7256C124.767 37.61 125.471 37.6391 125.471 37.6391ZM127.19 38.6119C127.386 38.6887 127.347 38.7949 127.347 38.7949C127.268 38.7181 126.955 38.7272 126.955 38.7272C126.8 38.6119 127.19 38.6119 127.19 38.6119ZM127.933 38.6119C128.129 38.5837 128.129 38.516 128.129 38.516C128.56 38.5633 128.285 38.7181 128.285 38.7181C128.208 38.6504 127.933 38.6119 127.933 38.6119ZM127.424 38.2367C128.051 38.2076 128.208 38.3521 128.208 38.3521C128.481 38.4198 128.481 38.3229 128.481 38.3229C128.128 38.0528 127.424 38.2367 127.424 38.2367ZM128.284 38.4198C128.479 38.4392 128.557 38.4006 128.557 38.4006C128.714 38.4868 128.517 38.5545 128.517 38.5545C128.479 38.4777 128.284 38.4777 128.284 38.4777V38.4198Z" fill="white"/>
<path fill-rule="evenodd" clip-rule="evenodd" d="M128.753 38.303C128.363 37.9473 127.347 38.1877 127.347 38.1877C127.073 37.9664 127.465 37.7925 127.465 37.7925C128.051 37.812 128.832 37.7925 128.832 37.7925C129.026 37.7925 128.949 37.8217 128.949 37.8217C129.105 37.9947 128.675 37.9947 128.675 37.9947C128.988 38.0624 129.067 38.0332 129.067 38.0332C129.693 38.0523 130.239 37.7449 130.239 37.7449C130.825 37.7352 131.529 37.8602 131.529 37.8602C131.92 37.9473 131.529 37.9755 131.529 37.9755C130.982 37.9473 130.004 37.995 130.004 37.995C129.887 38.0141 129.925 38.0724 129.925 38.0724C130.004 38.13 130.044 38.3225 130.044 38.3225C129.536 38.2936 128.753 38.303 128.753 38.303ZM131.333 37.2435C131.489 37.099 132.662 36.9451 132.662 36.9451C133.248 36.8874 134.107 36.8389 134.107 36.8389C135.124 36.8486 135.828 37.1178 135.828 37.1178L135.436 37.1946L135.592 37.2237C135.946 37.1369 136.335 37.2337 136.335 37.2337C136.686 37.2811 137.545 37.3588 137.545 37.3588C137.154 37.5024 135.943 37.445 135.943 37.445C135.981 37.5998 135.28 37.7048 135.28 37.7048C135.749 37.8016 137.545 37.8887 137.545 37.8887C138.21 37.6572 138.912 37.8211 138.912 37.8211C139.07 37.8493 139.266 37.8975 139.266 37.8975C138.874 37.9461 138.991 38.0712 138.991 38.0712C138.21 38.11 136.022 38.11 136.022 38.11C133.872 38.0323 132.779 37.8975 132.779 37.8975C132.583 37.8687 132.701 37.8299 132.701 37.8299L132.662 37.7725C132.623 37.7048 132.859 37.7151 132.859 37.7151C133.639 37.686 134.303 37.4744 134.303 37.4744C134.5 37.3591 134.069 37.3785 134.069 37.3785C132.74 37.3594 131.333 37.2435 131.333 37.2435Z" fill="white"/>
<path fill-rule="evenodd" clip-rule="evenodd" d="M138.289 37.7167C138.798 37.544 139.501 37.6593 139.501 37.6593C139.658 37.6876 139.814 37.7747 139.814 37.7747C139.501 37.7747 139.422 37.8424 139.422 37.8424C139.149 37.7067 138.289 37.7167 138.289 37.7167ZM139.228 38.0533C139.149 37.9765 139.424 37.948 139.424 37.948C139.58 37.9762 139.735 38.0439 139.735 38.0439C139.579 38.0533 139.228 38.0533 139.228 38.0533ZM139.501 37.8903C139.852 37.9289 139.892 38.0342 139.892 38.0342L140.165 38.0251C140.244 37.8806 139.931 37.8038 139.931 37.8038C139.579 37.8129 139.501 37.8903 139.501 37.8903ZM139.892 37.6299C140.089 37.659 140.048 37.7549 140.048 37.7549C140.321 37.8035 140.4 37.8994 140.4 37.8994C140.596 37.8703 140.907 37.8803 140.907 37.8803C140.751 37.6105 139.892 37.6299 139.892 37.6299ZM140.478 37.938L140.517 38.0148L140.946 38.0057C140.985 37.9483 140.868 37.9097 140.868 37.9097C140.634 37.8994 140.478 37.938 140.478 37.938ZM143.214 35.8576C143.293 35.9344 143.214 36.0698 143.214 36.0698C143.096 36.1272 142.784 36.2425 142.784 36.2425L143.331 36.3779L144.661 36.387C144.817 36.2716 145.597 36.0789 145.597 36.0789C146.105 35.501 147.393 35.26 147.393 35.26V35.2121C147.082 35.1926 147.044 35.1155 147.044 35.1155C147.039 35.0548 147.156 34.9972 147.355 34.9617C147.512 35.0002 147.512 34.9325 147.512 34.9325C147.434 34.9131 147.316 34.9131 147.316 34.9131L147.237 34.9516L146.887 35.0864C146.731 35.2114 145.752 35.5775 145.752 35.5775C145.44 35.6549 144.423 35.9338 144.423 35.9338L144.267 35.9147C143.918 35.9253 143.214 35.8576 143.214 35.8576ZM145.482 37.4854L145.753 37.3701L145.95 37.3798C146.028 37.5146 146.381 37.6105 146.381 37.6105L146.342 37.8035C146.226 37.7358 145.951 37.7358 145.951 37.7358C146.146 37.5628 145.482 37.4854 145.482 37.4854ZM143.72 38.3808H143.448L142.783 38.5638C142.743 38.6704 142.197 38.7186 142.197 38.7186C143.252 38.6995 143.408 38.6033 143.408 38.6033C143.354 38.6534 143.275 38.7016 143.174 38.7469C143.837 38.661 143.682 38.6227 143.682 38.6227C143.8 38.5259 143.761 38.5165 143.761 38.5165C143.8 38.4679 143.837 38.4588 143.837 38.4588C143.918 38.3808 143.72 38.3808 143.72 38.3808ZM144.19 38.4585C144.621 38.4776 144.854 38.4676 144.854 38.4676C145.403 38.5927 144.817 38.7757 144.817 38.7757C144.661 38.6886 144.74 38.6506 144.74 38.6506C144.817 38.603 144.661 38.5444 144.661 38.5444C144.424 38.6218 144.58 38.7566 144.58 38.7566C144.112 38.708 143.997 38.5927 143.997 38.5927C143.997 38.5165 144.19 38.4585 144.19 38.4585ZM148.566 37.3409L148.919 37.2739C149.075 37.3701 148.805 37.466 148.805 37.466C148.757 37.4211 148.675 37.3786 148.566 37.3409ZM148.02 37.466C148.138 37.4378 148.295 37.3798 148.295 37.3798C148.527 37.466 148.409 37.5822 148.409 37.5822C148.216 37.5531 148.295 37.5722 148.295 37.5722L148.02 37.466Z" fill="white"/>
<path fill-rule="evenodd" clip-rule="evenodd" d="M147.902 36.4928V36.8203C149.037 36.7911 148.919 37.0033 148.919 37.0033C149.387 37.0421 149.076 37.244 149.076 37.244C149.273 37.3599 149.039 37.4947 149.039 37.4947C149.625 37.8313 151.382 37.9569 151.382 37.9569L151.303 36.483L147.902 36.4928ZM147.668 35.9146L147.709 36.1076C147.081 36.4351 147.434 36.8779 147.434 36.8779C147.299 36.8831 147.182 36.9046 147.123 36.9353C146.692 36.242 147.668 35.9146 147.668 35.9146ZM150.169 37.8607L150.13 38.5837L151.381 38.8335L152.437 38.6028V37.9478L152.006 37.9569V38.516L151.381 38.6887L150.678 38.5634V37.9478L150.169 37.8607Z" fill="white"/>
<path fill-rule="evenodd" clip-rule="evenodd" d="M151.341 38.1968C151.457 38.1968 151.538 38.1776 151.538 38.1394C151.538 38.1011 151.457 38.0723 151.341 38.0723C151.263 38.0723 151.184 38.1008 151.184 38.1394C151.184 38.1779 151.264 38.1968 151.341 38.1968ZM151.694 38.3515C151.773 38.3515 151.851 38.3224 151.851 38.2942C151.851 38.2556 151.773 38.2265 151.694 38.2265C151.576 38.2265 151.497 38.2556 151.497 38.2942C151.497 38.3224 151.576 38.3515 151.694 38.3515ZM151.38 38.4669C151.458 38.4669 151.539 38.4387 151.539 38.4095C151.539 38.3804 151.458 38.3519 151.38 38.3519C151.264 38.3519 151.187 38.3804 151.187 38.4095C151.187 38.4387 151.264 38.4669 151.38 38.4669ZM151.069 38.3412C151.187 38.3412 151.264 38.313 151.264 38.2745C151.264 38.2453 151.187 38.2162 151.069 38.2162C150.953 38.2162 150.875 38.2453 150.875 38.2745C150.875 38.313 150.952 38.3412 151.069 38.3412ZM147.708 37.5618C147.667 37.4844 147.823 37.475 147.823 37.475C147.979 37.5709 148.294 37.6289 148.294 37.6289V37.6198C148.409 37.6865 148.762 37.7542 148.762 37.7542C148.802 37.8219 148.528 37.8219 148.528 37.8219C148.02 37.7157 147.708 37.5618 147.708 37.5618ZM148.488 37.6195C148.683 37.5618 148.644 37.5129 148.644 37.5129C148.762 37.5615 148.84 37.5615 148.84 37.5615L148.958 37.5421L149.192 37.6283C148.917 37.6383 148.76 37.7154 148.76 37.7154C148.528 37.6862 148.488 37.6195 148.488 37.6195ZM147.043 37.7057L147.315 37.8025C147.315 37.7639 147.393 37.7348 147.393 37.7348L147.708 37.658L147.552 37.5903L147.236 37.6771C147.159 37.6862 147.043 37.7057 147.043 37.7057ZM146.613 37.5327L146.847 37.6094C146.887 37.5709 146.966 37.5618 146.966 37.5618L147.355 37.475L147.122 37.4364L146.613 37.5327ZM145.637 36.463V36.5693L145.751 36.5599L146.339 36.5502L145.637 36.752L146.105 36.8294H146.769V36.752H146.068L146.769 36.5599V36.4731L146.65 36.4825H145.751L145.637 36.463ZM145.714 36.2227L145.675 36.3186L145.751 36.2994L146.65 36.3286L146.769 36.3671L146.847 36.2518H146.691L145.871 36.2227L145.714 36.1938V36.2227ZM146.415 35.7027L146.691 35.7507L146.494 35.7698C146.182 35.8372 146.379 35.8757 146.379 35.8757C146.573 35.9049 146.612 35.8472 146.612 35.8472C146.924 35.7413 147.159 35.7986 147.159 35.7986C147.552 35.866 147.277 35.9723 147.277 35.9723L147.159 36.0108L147.122 36.0396L146.81 36.0108L146.967 35.982C147.123 35.9528 147.081 35.9055 147.081 35.9055C147.004 35.8184 146.81 35.9055 146.81 35.9055C146.339 36.0208 146.106 35.8955 146.106 35.8955C145.908 35.808 146.415 35.7027 146.415 35.7027ZM147.552 35.3846V35.4617C147.08 35.4326 147.119 35.5482 147.119 35.5482C147.235 35.683 147.628 35.6636 147.628 35.6636V35.7215C147.079 35.7407 146.886 35.6153 146.886 35.6153C146.691 35.3944 147.552 35.3846 147.552 35.3846ZM147.901 36.4439H151.301V35.2113L147.746 35.2016L147.901 36.4439ZM147.629 33.9878C148.531 33.7942 149.62 33.6613 150.792 33.6024V33.7948C149.623 33.7569 147.629 33.9878 147.629 33.9878ZM151.851 33.6124V33.7854C154.272 33.7663 155.407 34.0264 155.407 34.0264C153.959 33.5927 151.851 33.6124 151.851 33.6124ZM150.99 33.6024V33.7954H151.655V33.6024H150.99ZM146.65 34.1129C146.418 33.8434 147.236 33.9493 147.236 33.9493L146.65 34.1129ZM147.511 33.9013C147.433 33.6221 148.176 33.776 148.176 33.776L147.511 33.9013ZM148.565 33.7183C148.528 33.4391 149.27 33.6027 149.27 33.6027L148.565 33.7183ZM149.582 33.5836C149.74 33.2175 150.366 33.5065 150.366 33.5065L149.582 33.5836ZM150.794 33.4002H151.851C152.007 33.4579 151.694 33.5447 151.694 33.5447C151.341 33.5738 150.99 33.535 150.99 33.535C150.443 33.5065 150.794 33.4002 150.794 33.4002ZM150.833 32.9668H151.851L151.539 33.0824L151.732 33.1307L151.966 33.0533L152.006 33.2943L151.497 33.1981L151.732 33.3426L150.833 33.3328L151.223 33.2172L151.108 33.1884L150.715 33.2749L150.677 33.0439L151.069 33.1307L151.187 33.1016L150.833 32.9668ZM155.21 33.8239L155.796 33.959C155.993 33.6603 155.21 33.8239 155.21 33.8239ZM154.898 33.7663L154.194 33.6698C155.013 33.4679 154.898 33.7663 154.898 33.7663ZM153.179 33.5256L153.881 33.6027C153.881 33.304 153.179 33.5256 153.179 33.5256ZM152.905 33.5159C152.827 33.3808 152.516 33.3808 152.516 33.3808C152.162 33.3617 152.123 33.5058 152.123 33.5058L152.905 33.5159ZM147.708 34.9898C151.458 34.8067 154.82 34.9898 154.82 34.9898C155.288 35.0089 155.094 35.0957 155.094 35.0957C154.742 35.1242 154.587 35.1051 154.587 35.1051C151.694 34.9606 147.825 35.1342 147.825 35.1342C147.239 35.1436 147.357 35.0763 147.357 35.0763C147.474 34.9703 147.708 34.9898 147.708 34.9898ZM151.497 35.2113V36.4542H154.742L154.858 35.2113H151.497ZM154.742 36.4922H151.497L151.538 37.9661C153.334 37.8893 153.843 37.6195 153.843 37.6195C153.921 37.4838 154.74 36.9256 154.74 36.9256V36.4922H154.742ZM152.709 37.9278V38.0723C153.413 38.1876 154.272 38.2453 154.272 38.2453C154.625 38.2162 154.469 38.1391 154.469 38.1391C154.354 38.116 154.221 38.0999 154.078 38.0914C153.336 38.0723 152.709 37.9278 152.709 37.9278ZM153.922 37.648L154.115 37.6966L153.413 37.9473L153.295 37.8796L153.922 37.648ZM154.27 37.7257L153.609 37.9564C154.624 38.12 155.21 37.7351 155.21 37.7351C154.624 37.7733 154.27 37.7257 154.27 37.7257ZM154.938 35.8372V36.0688C155.288 36.2227 155.366 36.5502 155.366 36.5502L155.68 36.4154C155.641 36.0779 154.938 35.8372 154.938 35.8372ZM152.67 38.5051V38.6114C152.981 38.679 153.802 38.7267 153.802 38.7267C153.999 38.7073 153.802 38.6405 153.802 38.6405C153.336 38.6405 152.67 38.5051 152.67 38.5051Z" fill="white"/>
<path fill-rule="evenodd" clip-rule="evenodd" d="M153.959 38.4678L154.156 38.2951C154.82 38.285 154.587 38.102 154.587 38.102C155.133 38.0635 155.756 37.8131 155.756 37.8131L155.916 37.9099L156.149 38.0252C156.265 38.0829 156.342 38.1123 156.305 38.1123L155.953 38.1891V38.1406L155.288 38.285L155.522 37.9673L154.898 38.3233C154.546 38.4201 153.959 38.4678 153.959 38.4678ZM154.078 38.5549C154.624 38.757 156.423 38.757 156.423 38.757C156.228 38.6417 155.719 38.5934 155.719 38.5934C156.502 38.5166 157.205 38.6893 157.205 38.6893C157.636 38.7861 158.103 38.7861 158.103 38.7861C157.991 38.7467 157.861 38.7112 157.713 38.6799C157.945 38.7081 158.181 38.689 158.181 38.689C157.91 38.5737 157.127 38.4678 157.127 38.4678C157.948 38.3615 158.652 38.6031 158.652 38.6031C159.002 38.7276 159.316 38.757 159.316 38.757L159.08 38.5643C159.316 38.7379 160.252 38.7861 160.252 38.7861C160.37 38.757 160.252 38.6993 160.252 38.6993C159.981 38.6993 159.745 38.6031 159.745 38.6031L159.708 38.4104C158.847 38.3813 158.847 38.2659 158.847 38.2659C158.965 38.0929 159.589 38.0738 159.589 38.0738L159.512 37.8516C160.019 37.7363 160.997 37.804 160.997 37.804C160.918 37.6686 160.488 37.7071 160.488 37.7071C160.488 37.6018 159.983 37.5918 159.983 37.5918V37.6209L158.573 37.8911C158.771 38.1603 158.262 38.2468 158.262 38.2468C157.287 38.4016 156.584 38.1894 156.584 38.1894L156.034 38.2765C156.542 38.2853 156.895 38.4016 156.895 38.4016L156.817 38.421C156.565 38.3703 156.271 38.3342 155.955 38.3145L155.488 38.3621L155.255 38.4107L154.078 38.5549Z" fill="white"/>
<path fill-rule="evenodd" clip-rule="evenodd" d="M157.203 37.5815C157.635 37.4267 157.827 37.1763 157.827 37.1763L157.987 37.2248L157.754 37.4079L157.911 37.4464L158.182 37.2925L158.379 37.3499L158.067 37.4752L158.3 37.5229L158.612 37.4173L158.809 37.4558L158.378 37.5621L158.571 37.6291L158.923 37.4944L159.198 37.5429L158.73 37.6583L158.923 37.6968L159.395 37.6006L159.551 37.6291L158.416 37.8604C158.024 37.6483 157.203 37.5815 157.203 37.5815ZM161.228 37.8122C162.207 37.7545 161.387 37.6291 161.387 37.6291C160.526 37.5523 160.408 37.5906 160.408 37.5906C160.723 37.6197 160.683 37.6674 160.683 37.6674C161.113 37.6774 161.228 37.8122 161.228 37.8122ZM161.268 38.0434L161.621 37.8313C161.072 37.8798 160.723 37.8507 160.723 37.8507C160.137 37.8313 159.9 37.8698 159.9 37.8698C159.55 37.9184 159.824 37.9281 159.824 37.9281C160.252 38.0334 161.268 38.0434 161.268 38.0434ZM162.401 38.014L162.596 38.0726L163.536 37.9952L162.987 38.092L164.004 38.1111L163.536 37.9372L162.401 38.014ZM159.588 33.7571C159.509 33.5838 159.12 33.5067 159.12 33.5067C158.689 33.4393 158.652 33.4973 158.652 33.4973C158.652 33.5838 158.923 33.6126 158.923 33.6126L159.588 33.7571ZM160.486 33.8916C160.407 33.7857 160.37 33.7762 160.37 33.7762C160.214 33.7089 160.095 33.6703 160.095 33.6703L159.588 33.5838C159.744 33.6609 159.784 33.7571 159.784 33.7571L160.486 33.8916ZM160.525 33.7377C160.758 33.8342 160.722 33.911 160.722 33.911L161.347 34.0652C161.347 33.911 161.035 33.8148 161.035 33.8148L160.526 33.7186V33.7377H160.525ZM159.316 34.807C159.041 34.8455 158.845 34.8261 158.845 34.8261C158.845 34.9226 159.55 34.9226 159.55 34.9226C159.824 34.9226 160.057 34.8553 160.057 34.8553V34.8167C159.824 34.8553 159.55 34.8653 159.55 34.8653L159.316 34.807ZM160.174 35.4714L160.252 35.404C160.994 35.3558 160.449 35.221 160.449 35.221C160.723 35.1922 160.801 35.2116 160.801 35.2116C161.151 35.163 161.269 35.269 161.269 35.269C161.545 35.2116 161.737 35.2498 161.737 35.2498C161.151 35.3849 161.855 35.4329 161.855 35.4329C162.209 35.4329 162.287 35.3464 162.287 35.3464C162.131 35.3072 162.09 35.279 162.09 35.279C162.206 35.2899 162.312 35.306 162.402 35.3269C162.365 35.269 162.599 35.269 162.599 35.269C162.713 35.3175 162.676 35.3558 162.676 35.3558C162.795 35.3269 163.03 35.3558 163.03 35.3558C162.676 35.452 163.144 35.5388 163.144 35.5388C163.694 35.6156 163.616 35.3943 163.616 35.3943C164.005 35.3943 163.966 35.4808 163.966 35.4808L164.202 35.4329C164.28 35.4905 164.28 35.5294 164.28 35.5294C164.436 35.4808 164.67 35.52 164.67 35.52C164.042 35.6159 164.473 35.703 164.473 35.703C164.67 35.7415 164.827 35.7124 164.827 35.7124L164.79 35.645L165.294 35.6644L164.79 35.8089C162.128 35.4329 160.174 35.4714 160.174 35.4714ZM161.387 33.8631L161.892 33.9401C161.855 34.0172 161.58 34.094 161.58 34.094C161.658 34.0172 161.387 33.8631 161.387 33.8631ZM163.807 33.9401C164.865 33.8728 165.568 34.2191 165.568 34.2191L164.788 34.1423C164.472 34.0555 163.807 33.9401 163.807 33.9401ZM164.865 34.2C165.097 34.2771 165.214 34.4021 165.214 34.4021C165.489 34.4795 166.272 34.5951 166.272 34.5951C166.075 34.2771 164.865 34.2 164.865 34.2ZM165.371 34.518C166.74 34.6431 166.31 34.9994 166.31 34.9994C166.113 34.8741 165.764 34.8355 165.764 34.8355C165.371 34.7396 165.371 34.518 165.371 34.518ZM165.607 34.8935C165.644 34.9706 165.528 35.1054 165.528 35.1054C165.722 35.1825 165.878 35.3363 165.878 35.3363C166.036 35.2978 166.232 35.0668 166.232 35.0668C166.113 34.9612 165.607 34.8935 165.607 34.8935ZM165.451 35.2019C165.37 35.3075 164.902 35.5002 164.902 35.5002L165.097 35.5579L165.331 35.5965C165.996 35.3849 165.451 35.2019 165.451 35.2019ZM173.501 38.3324L173.151 38.0049C172.876 37.8987 172.447 37.9663 172.447 37.9663C172.093 38.0334 171.663 37.9949 171.663 37.9949C171.195 37.9754 171.586 37.8987 171.586 37.8987C172.213 37.8027 172.836 37.7542 172.836 37.7542C173.307 37.8027 174.164 37.7927 174.164 37.7927C174.907 37.7645 174.751 37.9181 174.751 37.9181C174.791 38.0626 174.594 38.3133 174.594 38.3133C174.126 38.3133 173.501 38.3324 173.501 38.3324ZM174.751 38.4004L174.948 38.4477L174.361 38.7075L174.087 38.669C174.476 38.5922 174.751 38.4004 174.751 38.4004ZM175.103 38.4671L174.635 38.7179C175.492 38.7564 176.12 38.6116 176.12 38.6116L176.002 38.4577C175.571 38.5054 175.103 38.4671 175.103 38.4671ZM176.862 38.3609C177.056 38.3706 177.449 38.4092 177.449 38.4092C177.605 38.2365 177.252 38.024 177.252 38.024C177.917 38.0814 177.917 38.014 177.917 38.014C178.112 37.8795 177.449 37.8413 177.449 37.8413C176.313 37.7542 175.923 37.7736 175.923 37.7736C176.002 37.8504 175.964 37.8987 175.964 37.8987C175.999 37.9181 175.999 37.9949 175.999 37.9949C177.095 38.092 176.862 38.3609 176.862 38.3609ZM154.976 35.3755V35.452L155.367 35.3849L154.976 35.6065L154.938 35.7415L155.563 35.4134L155.367 35.3269L154.976 35.3755ZM155.095 35.7895H155.251L156.071 35.635L156.149 35.5965L156.342 35.703H156.227L155.485 35.8475L155.599 35.9246L155.798 35.9725L155.523 36.0014L155.095 35.7895ZM155.798 36.2135L155.916 36.3289L156.109 36.2997L156.423 36.2712L156.695 36.3188H157.085L156.617 36.2417L156.97 36.1458L156.814 36.0305L156.735 36.0781L156.384 36.1941L155.916 36.2229L155.798 36.2135ZM156.423 36.8973C156.227 36.9071 156.305 36.9359 156.305 36.9359C156.695 37.0609 156.931 36.955 156.931 36.955C157.049 36.8976 157.008 36.8591 157.008 36.8591L156.894 36.85C156.894 36.9653 156.66 36.9362 156.66 36.9362C156.502 36.9353 156.423 36.8973 156.423 36.8973ZM155.993 37.0798L155.916 37.2054L156.071 37.2731L156.149 37.1572L156.539 37.2054L156.342 37.3016L156.227 37.3113L156.502 37.3499L156.773 37.1951L156.891 37.1572H156.773L155.993 37.0609V37.0798ZM148.295 38.1397C148.216 38.2164 147.941 38.2073 147.941 38.2073L147.51 38.0823C147.236 37.9758 147.473 37.9475 147.473 37.9475L148.02 37.7545C148.139 37.773 148.236 37.7997 148.295 37.8313L147.902 37.9566C147.786 38.0243 147.979 38.0434 147.979 38.0434L148.295 38.1397Z" fill="white"/>
<path fill-rule="evenodd" clip-rule="evenodd" d="M148.84 37.7353C148.998 37.8989 148.333 37.8604 148.333 37.8604C148.1 37.9757 148.451 37.9757 148.451 37.9757C148.998 37.9854 149.194 37.8506 149.194 37.8506C149.194 37.7648 148.84 37.7353 148.84 37.7353ZM160.407 35.0674L159.939 34.9614C159.939 34.9614 160.328 34.8843 160.251 34.7881C160.251 34.7881 160.525 34.7787 159.98 34.7787L159.783 34.8076C159.783 34.8076 159.586 34.7881 159.55 34.759L159.471 34.6437L159.824 34.538L160.136 34.5474C160.364 34.4706 160.956 34.3395 161.461 34.2333L161.621 34.2776C161.424 34.3835 161.658 34.4124 161.658 34.4124C161.968 34.4606 162.089 34.3644 162.089 34.3644C162.401 34.403 162.285 34.3547 162.285 34.3547C161.971 34.3374 161.621 34.2351 161.556 34.2142C161.957 34.1301 162.285 34.0658 162.285 34.0658C162.478 33.9601 162.793 33.9116 162.793 33.9116C162.596 33.8542 162.44 33.6997 162.44 33.6997C163.417 33.6997 163.573 33.9501 163.573 33.9501C166.583 34.538 164.708 35.4626 164.708 35.4626C163.807 35.2795 161.776 35.1639 161.776 35.1639C162.051 35.0291 162.712 34.9423 162.712 34.9423C164.004 34.952 163.807 34.5666 163.807 34.5666C163.536 34.4315 163.614 34.6339 163.614 34.6339C163.064 35.0768 161.658 34.6825 161.658 34.6825C161.5 34.6534 161.658 34.7496 161.658 34.7496C161.736 34.7978 161.814 34.7881 161.814 34.7881L161.933 34.817L160.956 34.9135C160.8 34.9715 160.525 35.0677 160.525 35.0677H160.407V35.0674ZM142.236 34.3064C140.596 34.345 138.603 34.7013 138.603 34.7013C138.368 34.7399 138.33 34.7299 138.33 34.7299C137.938 34.9032 138.76 34.9803 138.76 34.9803C138.648 35.1387 138.758 35.3017 139.072 35.4425C139.423 35.5488 139.502 35.8186 139.502 35.8186C139.776 35.77 139.853 35.6641 139.853 35.6641C140.166 35.9913 141.182 36.059 141.182 36.059C141.449 36.0735 141.677 36.1154 141.809 36.1743C141.924 36.0784 141.886 35.9822 141.886 35.9822C142.003 36.1075 142.472 36.1743 142.472 36.1743C142.551 36.059 142.708 35.953 142.708 35.953C143.059 35.7703 142.785 35.5873 142.785 35.5873C142.943 35.6547 143.294 35.6741 143.294 35.6741C143.059 35.5008 143.294 35.356 143.294 35.356C143.412 35.1827 143.137 35.0671 143.137 35.0671L143.062 34.9973C142.892 35.1187 142.979 35.3078 142.979 35.3078C142.784 35.2983 142.588 35.2792 142.588 35.2792C142.706 35.4522 142.236 35.6835 142.236 35.6835C141.964 35.7894 141.923 35.8665 141.923 35.8665C141.572 35.7512 140.478 35.6741 140.478 35.6741C140.301 35.6198 140.145 35.5618 140.01 35.5008C139.853 35.5682 139.697 35.5494 139.697 35.5494C139.58 35.4528 139.229 35.3369 139.229 35.3369C138.956 35.2216 138.955 35.1059 138.955 35.1059C139.309 35.2698 139.426 35.3084 139.426 35.3084C139.699 35.3472 139.699 35.4814 139.699 35.4814C139.933 35.4528 139.971 35.3855 139.971 35.3855C140.519 35.6067 141.262 35.6456 141.262 35.6456C141.575 35.6841 141.848 35.7515 141.848 35.7515C141.886 35.5973 142.121 35.5302 142.121 35.5302C142.589 35.3566 142.316 35.1451 142.316 35.1451C142.418 35.2 142.623 35.2395 142.864 35.2507C142.785 35.1642 142.826 35.0871 142.826 35.0871C142.89 35.0249 142.918 34.9372 142.932 34.8698L142.826 34.769C142.591 34.6437 142.552 34.5572 142.552 34.5572C142.939 34.3832 142.236 34.3064 142.236 34.3064ZM140.634 35.1633C140.945 35.2692 141.378 35.3078 141.378 35.3078C141.61 35.1827 141.534 35.0868 141.534 35.0868C141.182 35.0962 141.026 35.0674 141.026 35.0674C140.907 35.1733 140.634 35.1633 140.634 35.1633ZM139.109 34.7399C139.657 34.7784 139.852 34.7204 139.852 34.7204C140.438 34.6628 140.517 34.817 140.517 34.817C140.517 34.8843 140.634 34.9323 140.634 34.9323C140.803 34.9366 141.101 34.9232 141.221 34.8938C141.378 34.8455 141.143 34.7972 141.143 34.7972C141.064 34.7299 140.986 34.6913 140.986 34.6913C140.986 34.5371 141.417 34.5468 141.417 34.5468C141.69 34.5565 141.885 34.4892 141.885 34.4892C141.928 34.5669 141.751 34.6424 141.455 34.6722C141.182 34.7204 141.259 34.7784 141.259 34.7784C141.532 34.8938 141.298 34.9035 141.298 34.9035C141.243 34.9356 141.13 34.9593 140.994 34.9675C141.117 35.0476 141.416 35.0385 141.416 35.0385C141.846 34.9812 141.846 34.8655 141.846 34.8655C142.04 35 141.846 35.0385 141.846 35.0385C142.04 35.1253 141.727 35.1639 141.727 35.1639C141.727 35.3275 141.375 35.4049 141.375 35.4049C140.047 35.2121 140.008 34.9906 140.008 34.9906C140.438 35.1736 140.868 35.0871 140.868 35.0871C140.953 35.0658 140.934 35.0042 140.918 34.9721C140.732 34.9803 140.555 34.9718 140.555 34.9718C140.32 34.8947 140.359 34.837 140.359 34.837C140.164 34.7308 140.047 34.8179 140.047 34.8179C139.345 34.9226 139.109 34.7399 139.109 34.7399ZM130.082 38.0528C131.177 38.2167 135.203 38.2167 135.203 38.2167C139.071 38.2264 141.182 38.0922 141.182 38.0922C141.65 38.0922 142.433 38.0051 142.433 38.0051C142.589 37.9954 142.509 38.0728 142.509 38.0728C142.277 38.2941 142.471 38.516 142.471 38.516C142.471 38.6699 141.807 38.6604 141.807 38.6604C136.14 38.8523 131.608 38.7564 131.608 38.7564C130.279 38.699 130.239 38.5248 130.239 38.5248C130.552 38.2555 130.122 38.1014 130.122 38.1014C129.964 38.0728 130.082 38.0528 130.082 38.0528ZM131.333 38.6216L131.451 38.5925V38.3135L131.372 38.265C132.232 38.2562 132.505 38.3417 132.505 38.3417C133.091 38.583 132.074 38.641 132.074 38.641C131.824 38.6529 131.567 38.6462 131.333 38.6216ZM133.286 38.3035L133.872 38.3135C133.716 38.3326 133.755 38.3903 133.755 38.3903L133.717 38.6501L133.873 38.7075L133.248 38.6984C133.404 38.6692 133.404 38.6501 133.404 38.6501V38.3709C133.404 38.3326 133.286 38.3035 133.286 38.3035ZM131.84 38.3135L131.802 38.5837C132.232 38.5925 132.311 38.5059 132.311 38.5059C132.388 38.4583 132.232 38.3906 132.232 38.3906C132.076 38.3135 131.84 38.3135 131.84 38.3135ZM134.498 38.3326H135.631L135.669 38.4006C135.512 38.3803 135.318 38.3803 135.318 38.3803H135.083V38.4868H135.201L135.474 38.4674L135.436 38.5545L135.242 38.5445H135.084V38.6607H135.357C135.514 38.6607 135.631 38.6316 135.631 38.6316V38.7084L134.771 38.6993H134.537C134.498 38.6893 134.537 38.6893 134.537 38.6893C134.615 38.6893 134.694 38.6702 134.694 38.6702V38.3718C134.655 38.3521 134.498 38.3326 134.498 38.3326ZM136.256 38.3229L136.842 38.3326C136.807 38.3475 136.78 38.3636 136.765 38.3803V38.5733C136.803 38.6501 137.038 38.641 137.038 38.641C137.312 38.6313 137.272 38.5442 137.272 38.5442V38.3521L137.195 38.3326H137.624C137.586 38.3417 137.586 38.3612 137.586 38.3612V38.5633C137.546 38.6887 137 38.699 137 38.699C136.414 38.689 136.414 38.5545 136.414 38.5545V38.3615C136.373 38.346 136.319 38.3329 136.256 38.3229ZM139.109 38.2844L140.047 38.265L140.164 38.3326C140.047 38.3229 139.89 38.3229 139.89 38.3229H139.657V38.4197H139.89C139.928 38.41 140.008 38.4006 140.008 38.4006L140.047 38.4868C139.969 38.4674 139.89 38.4674 139.89 38.4674H139.657V38.5736H139.931C140.008 38.5736 140.127 38.5445 140.127 38.5445V38.6122L139.228 38.6413L139.305 38.6222L139.267 38.3138C139.266 38.2941 139.109 38.2844 139.109 38.2844ZM140.792 38.2458L140.83 38.3226C140.907 38.2838 141.181 38.2838 141.181 38.2838L141.219 38.563L141.141 38.583L141.609 38.563L141.53 38.5539L141.492 38.275C141.725 38.2555 141.843 38.2838 141.843 38.2838L141.805 38.2073L141.766 38.2161L140.868 38.2364H140.789V38.2458H140.792ZM143.056 37.9375C142.783 37.8124 142.977 37.7262 142.977 37.7262C143.213 37.5526 143.876 37.5714 143.876 37.5714C144.267 37.6288 144.23 37.5523 144.23 37.5523C144.619 37.4175 145.087 37.4946 145.087 37.4946C145.216 37.5338 145.395 37.5611 145.595 37.5714C145.87 37.6585 145.714 37.7062 145.714 37.7062C145.693 37.7365 145.721 37.7678 145.791 37.793C146.145 37.8124 146.103 37.9092 146.103 37.9092C146.181 38.0146 145.907 38.1882 145.907 38.1882C145.673 38.2367 145.402 38.1973 145.402 38.1973C145.205 38.2073 145.284 38.2264 145.284 38.2264C145.481 38.3032 145.284 38.3417 145.284 38.3417C144.972 38.4289 144.541 38.4194 144.541 38.4194C143.917 38.4194 143.876 38.3417 143.876 38.3417C143.799 38.275 143.448 38.275 143.448 38.275C142.939 38.2364 142.9 38.1111 142.9 38.1111C142.862 38.0434 143.056 38.0142 143.056 38.0142C143.252 37.986 143.056 37.9375 143.056 37.9375ZM144.111 38.0246C144.268 38.169 143.918 38.227 143.918 38.227C143.604 38.2367 143.565 38.1785 143.565 38.1785C143.565 38.1211 143.369 38.1114 143.369 38.1114C143.252 37.9954 143.487 37.9954 143.487 37.9954C143.879 37.9666 144.111 38.0246 144.111 38.0246ZM144.854 37.9666C144.933 38.0628 145.482 38.1396 145.482 38.1396C145.753 38.1396 145.638 38.0434 145.638 38.0434C145.482 37.9951 145.56 37.9666 145.56 37.9666C145.95 37.9475 145.675 37.8604 145.675 37.8604C144.933 37.8124 144.854 37.9666 144.854 37.9666ZM144.309 37.8124C144.309 37.6294 143.837 37.6394 143.837 37.6394C143.604 37.6485 143.604 37.7065 143.604 37.7065C143.682 37.8033 143.525 37.8033 143.525 37.8033C143.174 37.8224 143.408 37.9186 143.408 37.9186C143.525 37.9572 143.604 37.9478 143.604 37.9478C143.955 37.9478 144.23 37.8992 144.23 37.8992C144.423 37.8898 144.309 37.8124 144.309 37.8124ZM144.817 37.61C144.933 37.6676 145.129 37.6585 145.129 37.6585C145.56 37.6585 145.285 37.7648 145.285 37.7648C145.052 37.8415 144.74 37.851 144.74 37.851C144.309 37.7265 144.347 37.6588 144.347 37.6588C144.347 37.504 144.817 37.61 144.817 37.61ZM144.542 38.0728C145.129 38.0922 145.089 38.2458 145.089 38.2458C144.933 38.3135 144.778 38.2844 144.778 38.2844C144.581 38.2367 144.466 38.2753 144.466 38.2753C144.466 38.3615 144.192 38.3035 144.192 38.3035C144.034 38.1014 144.542 38.0728 144.542 38.0728Z" fill="white"/>
<path fill-rule="evenodd" clip-rule="evenodd" d="M145.087 38.4582C145.673 38.4197 145.673 38.2846 145.673 38.2846C145.721 38.281 145.765 38.2758 145.807 38.2691C146.235 38.3353 146.338 38.42 146.338 38.42C146.494 38.4394 146.73 38.5353 146.73 38.5353C146.691 38.4103 146.456 38.3805 146.456 38.3805C146.368 38.3198 146.226 38.2649 146.037 38.22C146.338 38.128 146.338 37.9862 146.338 37.9862C146.769 37.9477 147.159 38.0822 147.159 38.0822C147.001 38.1016 146.847 38.0922 146.847 38.0922C147.474 38.1589 147.355 38.4002 147.355 38.4002C147.08 38.4002 146.966 38.3711 146.966 38.3711C147.434 38.5059 146.966 38.7663 146.966 38.7663C146.494 38.718 146.415 38.5833 146.415 38.5833C146.494 38.6795 146.338 38.7077 146.338 38.7077C145.949 38.6883 145.791 38.5632 145.791 38.5632C145.752 38.6795 145.516 38.6309 145.516 38.6309C145.402 38.6118 145.402 38.5441 145.402 38.5441C145.207 38.5353 145.087 38.4582 145.087 38.4582ZM149.973 38.3523C149.812 38.3432 149.654 38.3304 149.501 38.3143C149.404 38.3799 149.145 38.539 148.84 38.6218C148.84 38.6218 149.187 38.4503 149.39 38.3022C149.048 38.2631 148.732 38.2118 148.451 38.1498C148.411 38.2943 147.786 38.2169 147.786 38.2169C147.474 38.3614 148.058 38.4009 148.058 38.4009C148.528 38.3908 148.762 38.3232 148.762 38.3232C149.308 38.2949 148.919 38.4009 148.919 38.4009C148.722 38.4482 148.294 38.4676 148.294 38.4676C147.708 38.5162 148.02 38.6315 148.02 38.6315C148.331 38.7378 148.644 38.6992 148.644 38.6992C148.919 38.708 148.919 38.7566 148.919 38.7566C149.115 38.8719 149.426 38.8048 149.426 38.8048C149.779 38.708 149.582 38.6121 149.582 38.6121C149.387 38.487 149.505 38.4394 149.505 38.4394C149.387 38.2658 149.701 38.3908 149.701 38.3908C149.779 38.42 149.858 38.4971 149.858 38.4971C149.973 38.5641 150.015 38.5165 150.015 38.5165L149.973 38.3523ZM143.879 37.5234L144.111 37.4177C144.074 37.3015 143.604 37.2347 143.604 37.2347C143.525 37.2733 143.604 37.3209 143.604 37.3209C143.369 37.2347 142.666 37.1765 142.666 37.1765C142.588 37.2247 142.666 37.3209 142.666 37.3209C142.313 37.157 141.571 37.1479 141.571 37.1479C141.571 37.2247 141.727 37.2733 141.727 37.2733C141.375 37.2056 140.671 37.2247 140.671 37.2247C140.789 37.3983 141.375 37.5137 141.375 37.5137L141.297 37.5622C140.868 37.4845 140.751 37.5428 140.751 37.5428C140.713 37.5519 140.751 37.5713 140.751 37.5713C140.985 37.6672 141.845 37.7544 141.845 37.7544C141.61 37.7735 141.531 37.822 141.531 37.822C141.845 37.9759 142.783 37.9665 142.783 37.9665C142.659 37.8615 142.668 37.7498 142.806 37.646C142.707 37.6308 142.177 37.5477 142.002 37.5039C142.002 37.5039 141.845 37.4563 141.534 37.3886L140.986 37.2824C140.986 37.2824 141.417 37.3209 141.728 37.3792C141.728 37.3792 142.429 37.5261 142.935 37.5905C143.326 37.4982 143.879 37.5234 143.879 37.5234ZM159.824 38.0248C160.057 38.2652 159.899 38.5839 159.899 38.5839C164.278 38.9976 171.78 38.7466 171.78 38.7466C173.03 38.708 173.072 38.6607 173.072 38.6607C173.54 38.6506 173.462 38.4773 173.462 38.4773C173.188 38.3905 173.03 38.0436 173.03 38.0436C172.013 38.1881 166.272 38.2266 166.272 38.2266C161.621 38.2564 159.824 38.0248 159.824 38.0248ZM160.37 38.1693L160.801 38.1884L161.035 38.4009L161.503 38.2369L161.892 38.2461L161.855 38.2752V38.5833L161.934 38.6218L161.387 38.6027L161.466 38.5736V38.4097L160.958 38.5736L160.605 38.3711V38.5541L160.293 38.5156L160.33 38.4965L160.37 38.2163V38.1693ZM162.441 38.3137C161.777 38.4676 162.441 38.6412 162.441 38.6412C162.831 38.7274 163.339 38.6412 163.339 38.6412C163.925 38.4388 163.299 38.3137 163.299 38.3137C162.713 38.2369 162.441 38.3137 162.441 38.3137ZM162.871 38.3232C162.207 38.4009 162.675 38.5739 162.675 38.5739C162.831 38.661 163.064 38.5933 163.064 38.5933C163.379 38.5165 163.143 38.3908 163.143 38.3908C163.064 38.3037 162.871 38.3232 162.871 38.3232ZM163.885 38.3037H164.199L164.708 38.4773L164.667 38.342L164.628 38.3137L165.135 38.3228L165.058 38.352V38.6795L165.097 38.7077H164.823L164.277 38.5053V38.6409L164.314 38.6795L163.924 38.6695L163.961 38.6218L164 38.342L163.885 38.3037ZM166.35 38.3232H166.896C167.482 38.3232 167.601 38.5162 167.601 38.5162C167.601 38.7274 166.776 38.7183 166.776 38.7183L166.348 38.7086L166.505 38.6801L166.465 38.3526L166.35 38.3232ZM166.817 38.3717V38.6798C167.326 38.6315 167.208 38.487 167.208 38.487C167.092 38.3717 166.817 38.3717 166.817 38.3717ZM167.872 38.3232L168.106 38.314C168.42 38.2755 168.81 38.3043 168.81 38.3043C169.199 38.4106 168.769 38.5065 168.769 38.5065L169.123 38.6418C169.188 38.6461 169.243 38.6561 169.279 38.6704C169.086 38.6895 168.968 38.6704 168.968 38.6704C168.614 38.613 168.537 38.5356 168.537 38.5356H168.343V38.6801L168.38 38.7086H167.99L168.027 38.6801L167.99 38.3429L167.872 38.3232ZM168.343 38.4968V38.342C168.5 38.3034 168.614 38.352 168.614 38.352C168.811 38.4285 168.614 38.477 168.614 38.477C168.537 38.5059 168.343 38.4968 168.343 38.4968ZM170.061 38.2564C170.804 38.2464 170.804 38.487 170.804 38.487C170.726 38.6798 170.022 38.6798 170.022 38.6798C169.357 38.6607 169.32 38.4585 169.32 38.4585C169.436 38.237 170.061 38.2564 170.061 38.2564ZM170.061 38.3137C170.451 38.3228 170.414 38.4676 170.414 38.4676C170.451 38.603 170.061 38.6315 170.061 38.6315C169.865 38.6412 169.786 38.5739 169.786 38.5739C169.554 38.3908 169.865 38.3335 169.865 38.3335C169.906 38.3137 170.061 38.3137 170.061 38.3137ZM171.038 38.2461L171.583 38.2369L171.506 38.2755L171.545 38.6121L171.624 38.6315L171.156 38.6412L171.193 38.6218L171.156 38.2752L171.038 38.2461ZM171.976 38.2169L172.013 38.3137L172.131 38.2846L172.328 38.2755V38.5839L172.287 38.6121L172.678 38.5927L172.641 38.5635V38.2461H172.912L172.876 38.1693L172.797 38.1784L172.093 38.2169H171.976ZM155.993 37.7841C156.003 37.8087 156.019 37.8317 156.04 37.8536C156.057 37.8509 156.075 37.8484 156.093 37.8463C156.217 37.761 156.148 37.7264 156.148 37.7264L156.264 37.7064C156.317 37.7392 156.264 37.7984 156.224 37.833C156.329 37.8248 156.442 37.822 156.551 37.8248C156.603 37.7798 156.625 37.7334 156.616 37.687L156.055 37.67C155.928 37.721 155.993 37.7841 155.993 37.7841ZM156.089 37.8973C156.187 37.9714 156.339 38.0278 156.508 38.0715C156.689 38.0378 156.648 37.9079 156.626 37.8594C156.434 37.8542 156.242 37.8679 156.089 37.8973ZM156.597 38.0934C156.78 38.1347 156.97 38.1626 157.126 38.1802C157.206 38.1304 157.237 38.0767 157.214 38.0236C156.992 38.0236 156.759 38.0421 156.662 38.0497C156.639 38.07 156.61 38.0846 156.597 38.0934ZM157.254 38.1932C157.366 38.2039 157.438 38.2078 157.438 38.2078C157.576 38.2127 157.686 38.2118 157.784 38.2078L157.755 38.1201C157.631 38.1183 157.412 38.1453 157.307 38.1602L157.254 38.1932ZM157.909 38.1999C158.108 38.182 158.253 38.1386 158.286 38.087C158.168 38.0761 158.04 38.0734 157.916 38.0791L157.909 38.1999ZM158.298 38.0485C158.286 37.9176 158.115 37.8272 157.884 37.7622C157.912 37.7865 158.012 37.8782 157.949 37.9359L158.142 37.9179L158.179 37.9471L157.907 37.9556C157.923 37.9868 157.919 38.0187 157.897 38.05C158.103 38.0339 158.236 38.0418 158.298 38.0485ZM157.784 37.7371C157.637 37.704 157.47 37.6773 157.287 37.6578C157.32 37.6694 157.416 37.7125 157.402 37.7762C157.514 37.7553 157.646 37.7416 157.784 37.7371ZM157.061 37.6366C156.88 37.622 156.691 37.6135 156.502 37.6105C156.365 37.6129 156.235 37.6263 156.131 37.6484L156.705 37.6581L157.061 37.6366ZM156.724 37.6918C156.753 37.7289 156.783 37.7625 156.73 37.7956C157.024 37.768 157.214 37.782 157.286 37.7893C157.292 37.7477 157.253 37.7064 157.171 37.67L156.724 37.6918ZM157.434 37.8233C157.487 37.8667 157.478 37.9131 157.412 37.9556C157.627 37.931 157.762 37.9331 157.834 37.9386C157.864 37.8885 157.835 37.8372 157.753 37.7908C157.634 37.7914 157.52 37.8029 157.434 37.8233ZM157.359 37.9957C157.401 38.0394 157.397 38.0849 157.347 38.128C157.55 38.074 157.733 38.0724 157.779 38.0724C157.835 38.053 157.842 37.9908 157.835 37.9747C157.673 37.975 157.513 37.982 157.359 37.9957ZM157.3 37.8402C157.104 37.826 156.895 37.8293 156.707 37.85C156.742 37.9152 156.73 37.9692 156.698 38.0099C156.871 37.9875 157.067 37.9784 157.26 37.9838C157.328 37.9377 157.342 37.8879 157.3 37.8402ZM147.629 34.9228L146.966 34.4026L147.315 34.1716L147.708 34.5471L147.355 34.5085C147.629 34.8069 148.606 34.653 148.606 34.653C149.037 34.5376 148.643 34.4991 148.643 34.4991C148.138 34.4314 148.057 34.5085 148.057 34.5085C147.706 34.181 148.606 34.3064 148.606 34.3064C148.565 34.0942 148.918 34.0751 148.918 34.0751C149.385 34.1136 149.385 34.297 149.385 34.297C149.893 34.0945 150.209 34.3064 150.209 34.3064C150.246 34.3355 150.169 34.3929 150.169 34.3929C149.544 34.3355 149.468 34.4991 149.468 34.4991C149.387 34.605 150.169 34.6339 150.169 34.6339C151.108 34.5665 151.108 34.3158 151.108 34.3158C150.834 34.3255 150.366 34.4311 150.366 34.4311V33.9977C150.598 34.1036 151.187 34.1613 151.187 34.1613C151.069 33.9689 150.637 33.8629 150.637 33.8629L152.281 33.8535C151.731 33.9789 151.773 34.1619 151.773 34.1619C152.241 34.1428 152.474 34.0271 152.474 34.0271L152.513 34.4026C152.161 34.2681 151.809 34.3261 151.809 34.3261C151.652 34.6144 152.67 34.6245 152.67 34.6245C153.372 34.6245 153.413 34.48 153.413 34.48C153.256 34.3067 152.785 34.4026 152.785 34.4026C152.592 34.1136 153.449 34.239 153.449 34.239C153.139 34.0466 153.683 33.9789 153.683 33.9789C154.351 34.0751 154.035 34.239 154.035 34.239C154.937 34.1236 154.779 34.4026 154.779 34.4026C153.921 34.3064 154.035 34.5279 154.035 34.5279C154.429 34.7589 155.208 34.5853 155.208 34.5853C155.365 34.5279 155.405 34.47 155.405 34.47L155.051 34.4894L155.405 34.191L155.716 34.3452L155.949 34.1816L156.146 34.239L155.011 34.9419C151.576 34.7495 147.629 34.9228 147.629 34.9228ZM153.452 34.7881C153.258 34.7786 153.061 34.7589 153.102 34.7398C153.102 34.711 153.258 34.7012 153.491 34.711C153.684 34.7204 153.881 34.7398 153.844 34.7589C153.844 34.7881 153.684 34.7975 153.452 34.7881ZM149.23 34.7975C149.426 34.7881 149.582 34.7689 149.582 34.7401C149.582 34.7207 149.387 34.7113 149.193 34.7207C148.961 34.7207 148.804 34.7495 148.804 34.7689C148.804 34.7881 148.998 34.8075 149.23 34.7975ZM151.38 34.605L151.93 34.7207L151.38 34.8075L150.875 34.7207L151.38 34.605ZM158.728 36.1172C158.765 35.9824 159.078 35.8285 159.078 35.8285L158.622 35.708L158.466 35.7772C158.551 35.797 158.61 35.8258 158.61 35.8574C158.61 35.9011 158.498 35.9396 158.358 35.9557L158.321 35.9967L158.728 36.1172ZM158.498 35.6752L157.359 35.376C156.579 35.0964 156.03 35.2315 156.03 35.2315L155.485 35.2798C155.916 35.3471 156.148 35.4628 156.148 35.4628C156.616 35.4437 156.657 35.5013 156.657 35.5013L157.867 35.8625V35.8577C157.867 35.7997 158.024 35.7517 158.221 35.7517C158.263 35.7517 158.311 35.7542 158.351 35.7587L158.498 35.6752Z" fill="white"/>
<path fill-rule="evenodd" clip-rule="evenodd" d="M156.891 35.6351C156.616 35.5586 156.423 35.5007 156.305 35.5295C156.305 35.5295 156.658 35.6931 156.93 35.8949C157.126 36.0394 157.283 36.2033 157.244 36.3572L157.827 36.3672L157.981 36.3718L157.928 36.2977C157.76 36.2895 157.635 36.2455 157.635 36.1939C157.635 36.1262 157.791 36.0777 157.987 36.0777C157.997 36.0777 158.009 36.0777 158.019 36.0786L158.09 35.9954C157.993 35.9672 157.895 35.9365 157.791 35.905C157.635 35.8564 157.438 35.8081 157.283 35.7602C157.166 35.7125 157.007 35.674 156.891 35.6351ZM158.138 36.3766L158.766 36.3967C158.766 36.3967 158.571 36.319 158.689 36.1745L158.273 36.0519L158.227 36.1041C158.324 36.128 158.379 36.1608 158.377 36.1948C158.375 36.2379 158.269 36.2768 158.109 36.2938L158.138 36.3766Z" fill="white"/>
<path fill-rule="evenodd" clip-rule="evenodd" d="M154.115 37.6101C154.39 37.7063 155.211 37.6778 155.211 37.6778C155.33 37.6587 155.29 37.5433 155.29 37.5433C155.211 37.4756 155.253 37.4371 155.253 37.4371C155.447 37.4459 155.486 37.5039 155.486 37.5039C155.486 37.5233 155.368 37.6201 155.368 37.6201C156.228 37.4844 155.486 37.2246 155.486 37.2246C155.683 36.9548 155.954 36.888 155.954 36.888C156.852 36.6953 157.323 36.763 157.323 36.763C158.103 36.763 159.394 36.8692 159.394 36.8692C159.899 36.9078 161.698 36.9845 161.698 36.9845C161.721 36.9557 161.775 36.9293 161.855 36.9078C162.363 36.821 162.713 36.4066 162.713 36.4066C162.713 36.3399 162.831 36.3681 162.831 36.3681C162.909 36.4449 162.871 36.4743 162.871 36.4743C162.95 36.6188 162.478 36.8786 162.478 36.8786C163.418 37.0134 165.021 36.9852 165.021 36.9852C166.154 36.9852 167.051 36.8407 167.051 36.8407C168.106 36.7253 169.434 36.7536 169.434 36.7536L169.397 36.6962C168.421 36.5897 169.086 36.4646 169.086 36.4646L168.693 36.3299C167.639 36.3107 164.357 35.887 164.357 35.887C161.542 35.5019 160.058 35.5689 160.058 35.5689C158.845 35.887 159.041 36.417 159.041 36.417L159.742 36.4364C159.706 36.07 160.604 35.8773 160.604 35.8773C160.878 35.8485 160.681 35.9256 160.681 35.9256C159.706 36.2816 160.095 36.5323 160.095 36.5323C159.664 36.484 157.084 36.4555 157.084 36.4555C156.661 36.4276 156.208 36.4449 155.837 36.5032C155.366 36.6 155.173 36.7539 155.173 36.7539L154.665 37.1879C154.156 37.4562 154.115 37.6101 154.115 37.6101ZM165.021 36.4831C164.864 36.6856 164.357 36.9075 164.357 36.9075C164.435 36.9745 164.746 36.8689 164.746 36.8689C165.1 36.7141 165.214 36.502 165.214 36.502C165.135 36.3396 165.021 36.4831 165.021 36.4831ZM163.729 36.3484C163.536 36.6467 162.95 36.8398 162.95 36.8398C162.831 36.9166 163.182 36.8589 163.182 36.8589C163.691 36.6856 163.847 36.3678 163.847 36.3678C163.807 36.2807 163.729 36.3484 163.729 36.3484ZM164.357 36.4355C164.316 36.6379 163.613 36.8589 163.613 36.8589C163.457 36.9269 163.807 36.888 163.807 36.888C164.435 36.7527 164.549 36.4252 164.549 36.4252C164.472 36.3192 164.357 36.4355 164.357 36.4355ZM168.655 36.8301C168.931 36.8064 169.226 36.8003 169.516 36.8122L169.599 36.9153C169.423 36.9381 169.314 36.9839 169.319 37.0331C169.319 37.0999 169.512 37.1576 169.75 37.1576H169.786V37.3075C169.367 37.3406 168.936 37.3649 168.498 37.3797C167.833 37.4183 168.301 37.5145 168.301 37.5145C168.655 37.5913 168.732 37.659 168.732 37.659C169.044 37.7461 168.537 37.8129 168.537 37.8129C167.482 37.8614 166.308 38.1212 166.308 38.1212C165.488 38.1404 164.278 38.1121 164.278 38.1121C163.963 38.0539 163.729 37.9191 163.729 37.9191C164.16 37.8232 164.549 37.9385 164.549 37.9385C164.903 37.9868 165.568 37.9677 165.568 37.9677C166.154 37.8909 167.015 37.794 167.015 37.794C167.171 37.7655 167.404 37.7746 167.404 37.7746C167.638 37.7555 167.364 37.7069 167.364 37.7069C166.97 37.6389 166.616 37.5579 166.31 37.4665C165.999 37.3412 166.31 37.2835 166.31 37.2835C166.778 37.1478 168.655 36.8301 168.655 36.8301ZM169.757 36.8301C170.011 36.8546 170.227 36.8984 170.375 36.9551C170.608 37.0802 170.531 37.1099 170.531 37.1099C170.453 37.1485 170.531 37.2252 170.531 37.2252C170.358 37.2513 170.176 37.2732 169.985 37.2905V37.1366C170.109 37.1108 170.179 37.0726 170.178 37.0325C170.178 36.9682 170.001 36.9117 169.779 36.9075L169.757 36.8301Z" fill="white"/>
<path fill-rule="evenodd" clip-rule="evenodd" d="M178.306 36.5313C178.503 36.3291 178.347 36.1078 178.347 36.1078C178.072 35.9634 177.797 35.9342 177.797 35.9342C177.797 35.5205 176.783 35.4626 176.783 35.4626C176.783 35.5396 176.976 35.6456 176.976 35.6456C177.054 35.6841 176.783 35.6359 176.783 35.6359C176.742 35.5011 176.234 35.4334 176.234 35.4334C175.843 35.3761 175.647 35.3084 175.647 35.3084C175.216 35.4814 176.352 35.665 176.352 35.665C174.591 35.6456 171.544 35.7995 171.544 35.7995C169.394 35.9251 168.183 35.7421 168.183 35.7421C166.935 35.5976 167.403 35.3181 167.403 35.3181C167.989 35.0291 169.278 35.058 169.278 35.058C169.915 35.0622 170.547 35.0883 171.156 35.1351C173.031 35.2604 175.024 35.1159 175.024 35.1159C176 35.0003 176.314 34.7596 176.314 34.7596C175.727 34.8658 174.906 34.8461 174.906 34.8461C174.401 34.9617 172.756 34.9812 172.756 34.9812C173.852 34.8752 173.814 34.769 173.814 34.769C173.891 34.7016 174.319 34.6145 174.319 34.6145C173.654 34.6437 172.874 34.7978 172.874 34.7978C172.406 34.8847 171.193 34.8847 171.193 34.8847C171 34.9041 170.647 34.8752 170.647 34.8752C171.426 34.8173 171.468 34.7402 171.468 34.7402C169.631 34.6151 168.027 34.8947 168.027 34.8947C166.463 35.2125 166.935 35.5302 166.935 35.5302C167.206 35.8386 169.432 35.9345 169.432 35.9345C171.504 35.9637 173.969 35.8772 173.969 35.8772C175.843 35.8195 176.352 35.8869 176.352 35.8869C176.585 35.9254 176.352 35.9345 176.352 35.9345C175.216 35.896 174.867 36.2235 174.867 36.2235C175.646 36.0116 176.703 36.0696 176.703 36.0696C176.896 36.0787 176.703 36.089 176.703 36.089C176.154 36.0696 175.764 36.1567 175.764 36.1567C176.507 36.272 177.052 36.2235 177.052 36.2235C177.368 36.2044 177.524 36.1276 177.524 36.1276C177.992 36.3003 177.955 36.4356 177.757 36.5319C177.482 36.6472 176.975 36.6955 176.975 36.6955C175.842 36.7631 174.239 36.6187 174.239 36.6187C173.771 36.5613 172.949 36.5704 172.949 36.5704C172.831 36.5613 172.638 36.5419 172.481 36.5319C171.309 36.4447 169.12 36.368 169.12 36.368L169.317 36.4356C169.627 36.4551 169.785 36.4933 169.824 36.5319C169.861 36.5704 169.785 36.6086 169.785 36.6086C169.706 36.6569 169.588 36.6854 169.588 36.6854L169.748 36.7628C170.998 36.8587 170.761 37.1289 170.761 37.1289C170.879 37.3696 171.466 37.4655 171.466 37.4655C172.794 37.7544 174.162 37.7062 174.162 37.7062C174.633 37.7062 174.712 37.7353 174.712 37.7353C175.179 37.803 175.101 38.1111 175.101 38.1111C175.101 38.2364 174.868 38.3709 174.868 38.3709C175.024 38.4671 175.804 38.4194 175.804 38.4194C175.922 38.4094 175.964 38.3709 175.964 38.3709C176.041 38.3135 175.846 38.2555 175.846 38.2555C175.767 38.2264 175.846 38.2364 175.846 38.2364C176.353 38.2938 176.314 38.4386 176.314 38.4386C177.096 38.1973 176.002 38.0337 176.002 38.0337C175.846 38.0246 175.727 38.0143 175.727 38.0143C175.612 37.8898 175.571 37.6391 175.571 37.6391V37.5714L175.181 37.4652C174.085 37.5329 173.305 37.437 173.305 37.437C173.342 37.3793 173.342 37.3116 173.342 37.3116C173.421 37.138 173.186 36.714 173.186 36.714C173.497 36.7525 175.298 36.8293 175.298 36.8293C175.725 36.8779 176.586 36.8688 176.586 36.8688C177.604 36.9261 177.29 37.0994 177.29 37.0994C178.112 36.9355 177.406 36.8202 177.406 36.8202C177.959 36.7719 178.192 36.6566 178.306 36.5313ZM123.713 36.6275C123.362 36.425 123.908 36.1652 123.908 36.1652C124.924 35.7703 126.331 35.6741 126.331 35.6741C127.074 35.3949 128.208 35.3949 128.208 35.3949C128.052 35.472 127.777 35.5393 127.777 35.5393C128.479 35.5008 129.106 35.3563 129.106 35.3563C129.106 35.5779 128.284 35.6647 128.284 35.6647C131.294 35.7609 135.396 35.6453 135.396 35.6453C137.078 35.5779 136.998 35.1924 136.998 35.1924C136.647 34.8458 134.888 35.0479 134.888 35.0479C131.175 35.5779 129.378 34.8749 129.378 34.8749C130.278 34.9614 132.037 34.9614 132.037 34.9614C131.372 34.8941 130.512 34.6534 130.512 34.6534C131.06 34.6725 131.333 34.7305 131.333 34.7305C132.27 34.8555 133.327 34.827 133.327 34.827C133.013 34.7402 132.506 34.5957 132.506 34.5957C133.131 34.6631 133.756 34.6631 133.756 34.6631C134.147 34.6725 134.459 34.6825 134.459 34.6825C135.124 34.711 135.475 34.6825 135.475 34.6825C137.468 34.7305 137.702 35.183 137.702 35.183C137.898 35.7609 135.201 35.8092 135.201 35.8092C134.105 35.8866 128.049 35.8668 128.049 35.8668C128.676 35.9342 128.832 36.0787 128.832 36.0787C128.949 36.1464 129.106 36.1949 129.106 36.1949C128.479 36.2038 127.855 36.0019 127.855 36.0019C128.052 36.0978 128.559 36.2423 128.559 36.2423C128.208 36.2808 127.465 36.0593 127.465 36.0593C126.293 35.8189 125.277 36.0693 125.277 36.0693C124.181 36.2805 124.378 36.4636 124.378 36.4636C124.37 36.5252 124.469 36.585 124.65 36.6275C125.042 36.7434 125.745 36.7243 125.745 36.7243C126.488 36.7243 127.23 36.6757 127.855 36.6275C128.273 36.5992 128.68 36.5607 129.068 36.5121C129.186 36.5121 129.303 36.5155 129.418 36.5218C129.769 36.4636 130.279 36.4736 130.279 36.4736C131.997 36.435 136.922 35.9913 136.922 35.9913C137.588 35.9145 138.798 35.6061 138.798 35.6061C139.228 35.6735 139.501 35.9242 139.501 35.9242C139.627 35.903 139.722 35.8726 139.774 35.8374C140.009 36.0493 141.181 36.1649 141.181 36.1649C141.532 36.174 141.808 36.2608 141.808 36.2608L141.924 36.174C142.08 36.2323 143.252 36.4344 144.465 36.6266C145.288 36.7656 146.122 36.9006 146.966 37.0318C148.02 36.7428 148.763 36.9155 148.763 36.9155C148.607 36.9541 148.41 36.9446 148.41 36.9446C147.864 36.9349 147.512 37.0117 147.512 37.0117C148.805 36.9641 149.038 37.07 149.038 37.07C149.308 37.2239 148.41 37.3007 148.41 37.3007C148.41 37.0891 147.588 37.0982 147.588 37.0982C147.929 37.141 148.152 37.2254 148.174 37.3195C147.9 37.5025 147.236 37.359 147.236 37.359C147.002 37.3298 146.65 37.2524 146.65 37.2524C144.737 37.2233 142.9 36.8958 142.9 36.8958L141.922 37.0023C141.39 36.9031 140.962 36.7744 140.671 36.6263C140.556 36.5786 140.477 36.5401 140.477 36.5401V36.6263C140.595 36.7616 140.945 36.877 140.945 36.877C139.265 37.3489 136.255 36.9255 136.255 36.9255C135.904 36.8964 134.808 36.7519 134.808 36.7519C131.683 36.7428 130.236 37.436 130.236 37.436L130.001 37.532C129.768 37.966 129.22 37.966 129.22 37.966C129.494 37.8021 128.831 37.7253 128.831 37.7253C128.361 37.7447 127.267 37.7344 127.267 37.7344C126.564 38.0425 127.149 38.2644 127.149 38.2644C128.516 38.2552 127.93 38.5242 127.93 38.5242C127.813 38.611 127.5 38.611 127.5 38.611C127.538 38.332 126.484 38.3512 126.484 38.3512C127.382 38.4383 127.187 38.5724 127.187 38.5724C126.954 38.5627 126.719 38.6595 126.719 38.6595C125.391 38.4571 125.586 38.0722 125.586 38.0722C125.744 37.4072 126.33 37.2816 126.33 37.2816C126.526 37.2624 126.602 37.2916 126.602 37.2916C127.188 37.3593 127.97 37.3007 127.97 37.3007C128.283 37.2812 128.361 37.1277 128.361 37.1277C128.558 36.8578 129.298 36.6454 129.298 36.6454C128.79 36.704 125.938 36.887 125.938 36.887C124.61 36.9635 124.258 37.2427 124.258 37.2427C123.399 36.9829 124.766 36.8384 124.766 36.8384C124.181 36.8011 123.83 36.7243 123.713 36.6275ZM138.993 36.4062C139.346 36.5798 140.4 36.8014 140.4 36.8014C140.517 36.8299 140.713 36.8587 140.713 36.8587C140.634 36.8782 140.44 36.8782 140.44 36.8782C139.541 36.7531 138.955 36.4927 138.955 36.4927C138.759 36.3968 138.993 36.4062 138.993 36.4062ZM137.702 36.608C138.249 36.7719 138.445 36.8105 138.445 36.8105C138.836 36.9267 139.345 36.9841 139.345 36.9841C138.329 36.9841 137.702 36.7049 137.702 36.7049C137.546 36.6275 137.587 36.5986 137.587 36.5986L137.702 36.608ZM138.367 36.483C138.641 36.6757 139.813 36.8688 139.813 36.8688C140.085 36.8879 140.009 36.9355 140.009 36.9355C139.774 36.9456 139.696 36.9164 139.696 36.9164C138.642 36.8293 138.29 36.5413 138.29 36.5413C138.094 36.4353 138.367 36.483 138.367 36.483Z" fill="white"/>
</g>
<defs>
<clipPath id="clip0_28237_199">
<rect width="284" height="70" fill="white" transform="translate(0 0.874023)"/>
</clipPath>
</defs>
</svg>
