<svg width="284" height="71" viewBox="0 0 284 71" fill="none" xmlns="http://www.w3.org/2000/svg">
<g clip-path="url(#clip0_28237_51)">
<path d="M30.831 41.0667V42.2955H10.6898V41.0667C14.8339 40.9438 16.0772 40.5752 16.0772 37.2573V15.6299C16.0772 12.3121 14.834 11.9435 10.8556 11.8206V10.5917H46.4124L46.6611 17.5346H44.9206C43.4287 14.0325 41.771 12.8651 33.4826 12.8651H27.0176C25.0284 12.8651 24.614 13.1723 24.614 14.4626V24.5389H27.7636C34.3943 24.5389 35.8033 23.6173 36.6322 20.3609H38.2899V31.4819H36.6322C35.7205 27.7955 33.234 26.8125 27.7636 26.8125H24.614L24.5311 37.2574C24.5311 40.5752 25.7744 40.9438 30.8302 41.0668L30.831 41.0667ZM87.5231 17.6572H85.3681C83.9591 14.2165 81.9699 12.9877 77.4942 12.9877H72.2726V37.1951C72.2726 40.5129 73.433 40.8815 78.2403 41.0045V42.2333H57.6858V41.0045C62.4101 40.8816 63.6535 40.513 63.6535 37.1951V12.9256H58.4319C53.9562 12.9256 51.8841 14.2158 50.558 17.5951H48.403L49.3147 10.6522H86.6124L87.5231 17.6572ZM0 70.9415H94.5209V0.874023H0V70.9415Z" fill="#515151"/>
<path d="M113.797 41.3742C113.797 42.9716 114.378 43.0945 116.864 43.156V43.7089H107.249V43.156C109.239 43.0945 109.819 42.9102 109.819 41.3742V31.0521C109.819 29.4546 109.239 29.3317 107.332 29.2703V28.7173H124.24L124.323 32.0351H123.494C122.831 30.3761 122.002 29.8232 118.024 29.8232H114.874C113.88 29.8232 113.714 29.9461 113.714 30.6219V35.4143H117.195C120.428 35.4143 121.091 34.9843 121.422 33.4482H122.168V38.7936H121.422C121.008 37.0118 119.765 36.5203 117.195 36.5203H113.714V41.3741H113.797L113.797 41.3742ZM133.855 41.3742C133.855 42.9716 134.435 43.0945 136.922 43.156V43.7089H126.81V43.156C129.213 43.0945 129.876 42.9102 129.876 41.3742V31.0521C129.876 29.4546 129.379 29.3317 126.81 29.2703V28.7173H136.922V29.2703C134.518 29.3317 133.855 29.516 133.855 31.0521V41.3742ZM157.891 31.4208C157.891 29.9462 157.394 29.3318 155.073 29.1475V28.5946H162.284V29.1475C160.046 29.3319 159.466 29.9463 159.466 31.4208V44.0166H158.389L144.464 32.0966V40.8212C144.464 42.2958 144.961 42.9102 147.282 43.0945V43.6474H140.071V43.0945C142.309 42.9101 142.889 42.2958 142.889 40.8212V30.7449C142.226 29.8233 141.397 29.3932 140.071 29.2089V28.6559H145.624L157.808 39.1009V31.4208L157.891 31.4208ZM168.749 38.3022L171.816 32.3424L174.882 38.3022H168.749H168.749ZM183.337 43.709V43.156C181.762 43.156 181.43 42.726 180.684 41.3128L173.473 28.2875H172.479L165.019 41.7433C164.522 42.7264 163.776 42.9721 162.533 43.1565V43.7094H169.08V43.1565C167.671 43.1565 167.008 42.9107 167.008 42.1734C167.008 41.559 168.003 39.8387 168.169 39.4086H175.545C175.794 39.9001 176.789 41.6205 176.789 42.1734C176.789 42.9107 176.043 43.1565 174.634 43.1565V43.7094H183.336V43.7094L183.337 43.709ZM203.146 31.4206C203.146 29.946 202.648 29.3316 200.328 29.1473V28.5944H207.539V29.1473C205.301 29.3316 204.721 29.946 204.721 31.4206V44.0164H203.643L189.719 32.0964V40.821C189.719 42.2956 190.216 42.91 192.537 43.0943V43.6472H185.326V43.0943C187.564 42.9099 188.144 42.2955 188.144 40.821V30.7447C187.481 29.8231 186.652 29.393 185.326 29.2087V28.6557H190.879L203.063 39.1007L203.146 31.4206L203.146 31.4206ZM228.923 40.2066C226.768 42.9099 223.95 44.1388 219.806 44.1388C213.175 44.1388 209.197 40.9438 209.197 36.0901C209.197 32.6493 212.843 28.2871 219.971 28.2871C222.126 28.2871 225.11 29.2087 225.607 29.2087C226.188 29.2087 226.353 28.963 226.934 28.2871H228.011L228.426 33.3252H227.597C226.353 30.9905 224.281 29.2702 220.717 29.2702C215.91 29.2702 213.838 33.1409 213.838 36.0287C213.838 40.0837 216.159 42.8486 221.298 42.8486C225.276 42.8486 227.431 40.6367 228.343 39.7151L228.923 40.2066L228.923 40.2066ZM238.703 41.3739C238.703 42.9714 239.283 43.0943 241.77 43.1557V43.7087H231.658V43.1557C234.062 43.0943 234.725 42.91 234.725 41.3739V31.0518C234.725 29.4544 234.144 29.3315 231.658 29.2701V28.7171H241.77V29.2701C239.366 29.3315 238.703 29.5158 238.703 31.0518V41.3739ZM250.141 38.302L253.208 32.3422L256.274 38.302H250.141H250.141ZM264.729 43.7088V43.1558C263.154 43.1558 262.822 42.7257 262.077 41.3126L254.866 28.2873H253.871L246.411 41.7431C245.914 42.7261 245.168 42.9719 243.925 43.1562V43.7092H250.473V43.1562C249.064 43.1562 248.401 42.9105 248.401 42.1732C248.401 41.5588 249.395 39.8385 249.561 39.4084H256.938C257.186 39.8999 258.181 41.6202 258.181 42.1732C258.181 42.9105 257.435 43.1562 256.026 43.1562V43.7092H264.729V43.7092L264.729 43.7088ZM266.552 43.7088V43.1558C268.459 43.0944 269.039 42.9101 269.039 41.374V31.0519C269.039 29.4545 268.459 29.3316 266.552 29.2701V28.7172H275.918V29.2701C273.68 29.3316 273.1 29.5159 273.1 31.0519V41.6814C273.1 42.603 273.432 42.9102 275.669 42.9102C279.316 42.9102 281.471 42.4187 283.212 39.7768H283.958L282.549 43.8318H266.386V43.7089L266.552 43.7088ZM111.559 67.5477C113.88 67.4863 114.46 67.302 114.46 65.7659V54.1533H111.974C109.653 54.1533 108.658 54.8906 107.995 56.9182H107.166L107.664 53.0474H125.567L126.064 56.9182H125.235C124.572 54.8292 123.661 54.1533 121.257 54.1533H118.77V65.7659C118.77 67.3634 119.351 67.4863 121.671 67.5477V68.1007H111.891V67.5477H111.56H111.559ZM135.099 65.7659C135.099 67.3634 135.679 67.4863 138.165 67.5477V68.1007H128.053V67.5477C130.457 67.4863 131.12 67.302 131.12 65.7659V55.4438C131.12 53.8464 130.54 53.7235 128.053 53.6621V53.1091H138.165V53.6621C135.762 53.7235 135.099 53.9078 135.099 55.4438V65.7659V65.7659ZM159.549 52.986H166.595V53.5389C164.688 53.6004 164.108 53.7847 164.108 55.3207V65.7042C164.108 67.3017 164.688 67.4245 166.595 67.486V68.0389H157.394V67.486C159.384 67.4245 159.964 67.2402 159.964 65.7042V55.0747H159.881L153.085 68.2842H152.09L145.376 55.0747H145.293V65.2739C145.293 66.7485 145.791 67.3628 148.111 67.5471V68.1001H140.901V67.5471C143.138 67.3628 143.719 66.7484 143.719 65.2739V54.9518C143.719 53.9073 143.138 53.5386 140.901 53.5386V52.9856H148.277L153.665 63.4921L159.549 52.9856L159.549 52.986ZM169.413 68.1007V67.5477C171.319 67.4863 171.899 67.302 171.899 65.7659V55.4438C171.899 53.8464 171.319 53.7235 169.413 53.662V53.1091H186.404L186.487 56.4269H185.658C184.995 54.7679 184.167 54.215 180.188 54.215H177.039C176.044 54.215 175.878 54.3378 175.878 55.0137V59.8061H179.359C182.592 59.8061 183.255 59.376 183.586 57.84H184.332V63.1854H183.586C183.172 61.4036 181.929 60.9735 179.359 60.9735H175.878V66.1959C175.878 67.1175 176.21 67.4247 179.857 67.4247C183.504 67.4247 185.658 66.9332 187.399 64.2913H188.145L186.736 68.3463H169.247V68.1006L169.413 68.1007ZM190.963 63.3697H191.709C192.537 65.3358 195.19 67.4863 198.174 67.4863C200.743 67.4863 201.655 66.1346 201.655 64.9672C201.655 61.4651 191.046 60.8507 191.046 56.5498C191.046 54.4609 193.698 52.6791 196.847 52.6791C199.914 52.6791 200.992 53.4778 202.318 53.4778C202.898 53.4778 203.312 53.1706 203.395 52.6791H204.141V57.5329H203.395C202.566 55.321 200.411 53.7235 197.676 53.7235C195.438 53.7235 194.527 54.8294 194.527 55.8739C194.527 58.9459 205.136 59.0074 205.136 64.3528C205.136 66.749 202.566 68.5308 198.837 68.5308C195.273 68.5308 194.361 67.6092 192.952 67.6092C192.455 67.6092 192.123 67.855 191.874 68.4079H190.797L190.963 63.3698L190.963 63.3697Z" fill="#515151"/>
</g>
<defs>
<clipPath id="clip0_28237_51">
<rect width="284" height="70" fill="white" transform="translate(0 0.874023)"/>
</clipPath>
</defs>
</svg>
