<svg width="284" height="71" viewBox="0 0 284 71" fill="none" xmlns="http://www.w3.org/2000/svg">
<g clip-path="url(#clip0_28237_35)">
<path d="M-11.0047 89.7449C-11.0047 53.7734 -11.0047 17.8212 -11.0047 -18.1694C91.2638 -18.1694 193.553 -18.1694 295.862 -18.1694C295.862 17.7828 295.862 53.7734 295.862 89.7449C193.573 89.7449 91.2842 89.7449 -11.0047 89.7449ZM161.253 1.22051C161.09 1.22051 160.947 1.20128 160.824 1.22051C154.026 2.39391 147.247 3.56731 140.448 4.77919C140.183 4.81766 139.856 5.20238 139.815 5.47168C139.611 6.56814 139.836 6.77973 141.061 6.91439C144.001 7.2414 145.553 8.45327 146.165 11.204C146.512 12.7621 146.737 14.3587 146.778 15.9361C146.92 20.9182 147.043 25.9196 147.002 30.9018C146.92 42.9628 146.778 55.0238 146.594 67.0848C146.573 68.0274 146.859 68.4313 147.86 68.5852C151.31 69.0853 154.72 69.7201 158.191 70.1433C162.744 70.7012 167.337 70.7781 171.87 69.874C179.343 68.3928 185.161 64.6995 188.857 58.2939C190.899 54.7352 191.899 50.888 192.267 46.8677C192.695 42.251 192.348 37.7306 190.552 33.3832C188.306 27.9202 184.61 23.6498 178.567 21.7262C172.993 19.9564 167.521 20.7644 162.294 23.1496C161.988 23.2843 161.641 23.3997 161.294 23.5343C161.253 16.0708 161.253 8.68411 161.253 1.22051ZM57.6779 2.39391C56.8612 2.39391 56.3916 2.39391 55.9221 2.39391C38.0368 2.39391 20.1515 2.39391 2.26628 2.39391C-3.25332e-06 2.41315 0.326669 2.08614 0.285835 4.31752C0.285835 4.4137 0.245001 4.54835 0.306252 4.60606C0.490004 4.81766 0.694174 5.12544 0.939177 5.16391C1.63335 5.29856 2.34795 5.3178 3.06254 5.3755C5.69633 5.60634 7.71761 6.72203 8.75887 9.08806C9.1468 9.97292 9.53472 10.8963 9.6368 11.8196C10.0451 16.1669 10.5964 20.5335 10.6168 24.9001C10.6577 34.9798 10.4331 45.0595 10.2493 55.12C10.2085 57.6014 9.86139 60.0829 8.86096 62.4297C8.02386 64.3917 6.59468 65.719 4.26714 66.0653C3.30755 66.1999 2.34795 66.3923 1.36793 66.5846C0.265418 66.7962 0.204167 66.9886 0.285835 68.5083C0.347086 69.4508 1.04126 69.1623 1.55169 69.1623C8.82012 69.1815 16.109 69.1623 23.3774 69.1623C27.6241 69.1623 31.8709 69.1623 36.138 69.1623C36.628 69.1623 37.1997 69.1623 37.0568 68.489C36.9139 67.8735 37.6489 66.9309 36.383 66.7001C35.3622 66.5077 34.3209 66.2769 33.2796 66.1807C30.4621 65.9499 28.645 64.5456 27.7262 62.0642C26.7666 59.4673 26.5216 56.7743 26.44 54.062C26.2766 48.9259 26.0929 43.7707 25.9091 38.6346C25.8683 37.8267 26.195 37.5767 27.0321 37.6151C29.4617 37.769 31.9117 37.8844 34.3617 37.9806C36.2605 38.0576 37.8326 38.7885 39.0576 40.1351C40.7114 41.9817 41.3852 44.2131 41.9364 46.5022C41.9977 46.7715 42.3039 47.137 42.5489 47.1755C43.2635 47.2716 44.019 47.2139 44.7744 47.2139C44.7744 39.6349 44.7744 32.2098 44.7744 24.6885C44.1211 24.6885 43.5494 24.727 42.9777 24.6885C42.2835 24.6308 42.0589 24.8616 41.8548 25.5349C41.3443 27.2469 40.7727 28.9781 39.9152 30.5363C38.7922 32.5945 36.8934 33.7679 34.3617 33.9026C31.9117 34.0372 29.4821 34.0949 27.0321 34.2488C26.1745 34.3065 25.8683 34.0565 25.8887 33.2486C25.9704 31.2288 25.9908 29.2282 26.0316 27.2084C26.1337 22.3225 26.2154 17.4173 26.3175 12.5313C26.3583 11.0309 26.4604 9.53049 26.5012 8.03008C26.5216 7.33758 26.7258 7.0298 27.5833 7.0298C31.4217 7.08751 35.2601 7.0298 39.1189 7.08751C43.2635 7.14522 46.6323 8.79952 49.307 11.7619C51.4712 14.1664 52.8187 16.9748 53.9824 19.8795C54.8195 21.957 54.7991 21.9378 57.0654 21.3222C57.7392 21.1298 57.9637 20.8413 57.9433 20.1873C57.8412 16.0323 57.78 11.8773 57.7187 7.7223C57.6575 6.01029 57.6779 4.27905 57.6779 2.39391ZM50.8382 46.5214C50.7974 49.1952 51.3487 52.8886 52.7166 56.428C55.1462 62.6605 59.5359 67.104 66.2939 69.2585C70.3364 70.5473 74.5219 70.7589 78.7482 70.2972C86.7721 69.4123 93.0401 65.8537 96.8989 59.1211C101.779 50.561 101.717 41.6547 97.9402 32.7869C95.5718 27.2469 91.223 23.4959 85.2 21.5338C80.9941 20.168 76.6249 19.9757 72.2352 20.495C65.3751 21.303 59.8217 24.2268 55.7995 29.5552C52.2266 34.2873 50.8178 39.6734 50.8382 46.5214ZM239.961 60.2367C238.858 60.8523 237.796 61.5448 236.653 62.0834C233.652 63.4876 230.446 63.7762 227.139 63.5261C222.463 63.1414 218.604 61.3524 215.766 57.7938C212.663 53.8888 211.785 49.3299 211.581 44.6171C211.52 43.0782 211.561 43.0589 213.153 43.0589C222.361 43.0589 231.59 43.0397 240.798 43.0782C241.676 43.0782 242.023 42.8858 241.941 42.0202C241.676 38.9617 241.369 35.9224 240.328 32.9985C238.388 27.5354 234.918 23.3805 229.017 21.3414C225.464 20.1296 221.769 20.0719 218.074 20.495C210.744 21.3414 205.027 24.6693 201.148 30.5747C196.717 37.3266 195.799 44.6748 197.555 52.3307C199.167 59.3327 203.23 64.7187 210.091 68.0081C215.481 70.605 221.238 71.1244 227.118 69.9894C232.325 68.9891 236.776 66.6616 240.267 62.8529C241.451 61.5448 241.41 61.4679 239.961 60.2367ZM278.855 35.6915C280.937 35.2106 280.958 35.2106 280.917 33.3255C280.856 30.1323 280.754 26.9391 280.733 23.7267C280.733 22.9573 280.468 22.5918 279.692 22.3417C276.65 21.303 273.506 20.6682 270.28 20.4181C265.951 20.0911 261.684 20.1103 257.499 21.4184C251.088 23.4189 246.719 28.478 246.29 34.5758C245.963 39.2694 247.474 43.2705 251.639 46.1559C254.13 47.8872 257.029 48.8298 259.826 49.9455C262.256 50.9073 264.685 51.946 266.891 53.2733C269.545 54.8699 270.463 57.3513 269.79 60.2945C269.136 63.1029 267.381 65.0458 264.44 65.7767C259.887 66.8924 255.988 65.6228 252.823 62.4104C250.455 60.0059 249.046 57.0628 247.78 54.0427C247.637 53.7157 247.127 53.1963 246.964 53.2541C246.269 53.4656 245.208 53.2733 245.249 54.5429C245.391 58.6594 245.432 62.7951 245.473 66.9117C245.473 67.5657 245.779 67.8542 246.371 67.9889C249.332 68.6621 252.252 69.4508 255.253 69.951C259.887 70.7012 264.563 70.8358 269.218 69.9125C273.322 69.0853 276.977 67.4503 279.794 64.3725C282.673 61.2178 283.694 57.5052 283.53 53.4464C283.408 50.4648 282.448 47.8103 280.223 45.6366C277.814 43.2705 274.771 41.8855 271.607 40.6544C268.442 39.4041 265.257 38.2115 262.46 36.3071C259.928 34.5758 258.765 32.3445 259.234 29.3436C259.663 26.6698 261.664 24.4192 264.461 23.8229C266.788 23.3227 268.993 23.7459 271.056 24.7655C274.077 26.2659 275.731 28.8627 277.099 31.6712C277.773 32.96 278.283 34.3065 278.855 35.6915ZM122.502 20.3027C122.257 20.3219 122.073 20.3412 121.93 20.3604C115.335 21.6107 108.741 22.8803 102.146 24.1307C101.37 24.2845 100.962 24.4961 100.982 25.3425C101.003 26.2274 101.513 26.2659 102.228 26.3428C105.964 26.7468 107.148 27.7278 107.618 31.2865C107.985 34.0757 108.169 36.8842 108.189 39.6926C108.23 45.4827 108.149 51.2727 107.985 57.0628C107.924 59.1788 107.638 61.3332 107.169 63.3915C106.781 65.1035 105.454 66.1615 103.514 66.4115C102.881 66.4885 102.248 66.6231 101.615 66.7385C101.431 66.777 101.125 66.8732 101.105 66.9694C101.044 67.6042 100.962 68.2582 101.125 68.8545C101.166 69.0469 101.921 69.1623 102.35 69.1623C111.252 69.1815 120.174 69.1815 129.076 69.1623C131.444 69.1623 131.159 69.6239 131.138 67.0848C131.138 67.0078 131.056 66.9117 130.995 66.777C130.076 66.7001 129.137 66.5846 128.178 66.5462C125.033 66.4115 123.4 65.2189 123.012 62.295C122.583 58.9479 122.277 55.5624 122.216 52.1768C122.134 46.7715 122.359 41.3662 122.298 35.9608C122.277 34.345 123.053 33.5371 124.421 32.9985C128.668 31.2865 132.751 31.8443 136.712 33.8449C137.018 33.9988 137.345 34.1526 137.712 34.3258C139.325 30.3054 140.836 26.3813 142.449 22.4956C142.817 21.5915 142.653 21.1875 141.714 20.8605C137.345 19.2832 133.323 20.0141 129.566 22.4379C126.667 24.323 124.707 26.9584 123.135 29.863C122.971 30.1708 122.767 30.4593 122.461 30.921C122.502 27.2854 122.502 23.8421 122.502 20.3027Z" fill="white"/>
<path d="M161.253 1.22036C161.253 8.68395 161.253 16.0706 161.253 23.5727C161.6 23.438 161.927 23.3226 162.254 23.1879C167.501 20.8027 172.952 19.9948 178.526 21.7645C184.569 23.6881 188.265 27.9585 190.511 33.4215C192.307 37.7689 192.634 42.2893 192.226 46.906C191.858 50.9263 190.858 54.7735 188.816 58.3322C185.121 64.7378 179.302 68.4311 171.829 69.9123C167.297 70.7972 162.723 70.7395 158.15 70.1816C154.699 69.7584 151.269 69.1236 147.819 68.6235C146.818 68.4889 146.533 68.0657 146.553 67.1231C146.716 55.0621 146.88 43.0011 146.961 30.9401C147.002 25.9579 146.88 20.9566 146.737 15.9744C146.696 14.3971 146.471 12.7812 146.124 11.2423C145.512 8.49159 143.98 7.27972 141.02 6.95271C139.795 6.81805 139.591 6.60646 139.775 5.51C139.815 5.2407 140.162 4.87521 140.407 4.81751C147.186 3.60563 153.985 2.43223 160.784 1.25884C160.947 1.20113 161.069 1.22036 161.253 1.22036ZM161.131 41.693C161.11 45.5979 161.09 49.4836 161.131 53.3885C161.172 57.2935 161.274 61.1791 161.335 65.0841C161.355 66.8153 161.355 66.8538 163.193 67.0654C166.153 67.4116 168.787 66.7768 170.89 64.6801C172.523 63.045 173.667 61.1407 174.524 59.0824C176.831 53.5424 177.423 47.7524 177.097 41.8661C176.913 38.5191 176.26 35.2297 174.728 32.1327C173.789 30.2283 172.585 28.4971 170.727 27.266C167.93 25.4193 164.928 25.6309 161.866 26.5735C161.253 26.7658 161.09 27.0351 161.09 27.593C161.151 32.3058 161.131 36.9994 161.131 41.693Z" fill="black"/>
<path d="M57.6779 2.39369C57.6779 4.27882 57.6575 5.99083 57.6779 7.72208C57.7392 11.8771 57.8004 16.0321 57.9025 20.187C57.9229 20.8411 57.6983 21.1488 57.0246 21.322C54.7583 21.9568 54.7787 21.976 53.9416 19.8793C52.7779 16.9746 51.4303 14.1469 49.2661 11.7616C46.5915 8.7993 43.2431 7.14499 39.0781 7.08729C35.2397 7.02958 31.4013 7.08729 27.5425 7.02958C26.685 7.01034 26.4808 7.33736 26.4604 8.02985C26.4196 9.53027 26.3175 11.0307 26.2766 12.5311C26.1745 17.417 26.0929 22.3222 25.9908 27.2082C25.95 29.228 25.9295 31.2285 25.8479 33.2483C25.8275 34.0562 26.1133 34.3063 26.9912 34.2486C29.4208 34.0947 31.8709 34.0178 34.3209 33.9023C36.8526 33.7677 38.7514 32.5751 39.8743 30.536C40.7318 28.9587 41.2831 27.2274 41.8139 25.5347C42.0181 24.8614 42.2427 24.6306 42.9369 24.6883C43.5086 24.7267 44.0802 24.6883 44.7336 24.6883C44.7336 32.2096 44.7336 39.6539 44.7336 47.2137C43.9781 47.2137 43.2431 47.2714 42.5081 47.1752C42.2631 47.156 41.9569 46.7713 41.8956 46.502C41.3444 44.2129 40.691 41.9815 39.0168 40.1348C37.7918 38.7691 36.2197 38.0573 34.3209 37.9804C31.8709 37.8842 29.4413 37.7688 26.9912 37.6149C26.1541 37.5572 25.8275 37.8073 25.8683 38.6344C26.0725 43.7704 26.2562 48.9257 26.3991 54.0617C26.4808 56.774 26.7258 59.4671 27.6854 62.0639C28.6042 64.5454 30.4213 65.9304 33.2388 66.1804C34.2801 66.2766 35.3009 66.5075 36.3422 66.6998C37.608 66.9306 36.873 67.8732 37.016 68.4888C37.1589 69.162 36.5872 69.162 36.0972 69.162C31.8505 69.162 27.6037 69.162 23.3366 69.162C16.0682 69.162 8.77929 69.162 1.51086 69.162C1.02085 69.162 0.306255 69.4313 0.245005 68.508C0.163337 66.9884 0.224588 66.796 1.3271 66.5844C2.2867 66.4113 3.2463 66.2189 4.22631 66.065C6.55385 65.7188 7.96262 64.3915 8.82013 62.4294C9.82056 60.0826 10.1676 57.6012 10.2085 55.1197C10.3922 45.04 10.6168 34.9603 10.576 24.8999C10.5556 20.5333 10.0043 16.1859 9.59597 11.8194C9.51431 10.896 9.10597 9.95346 8.71804 9.08784C7.67678 6.7218 5.6555 5.62535 3.02171 5.37528C2.30712 5.31757 1.59252 5.2791 0.898347 5.14445C0.653344 5.10597 0.449174 4.7982 0.265421 4.5866C0.204171 4.52889 0.245005 4.39424 0.245005 4.29806C0.326672 2.08591 9.22068e-07 2.41293 2.26628 2.39369C20.1515 2.39369 38.0368 2.39369 55.9221 2.39369C56.3916 2.39369 56.8612 2.39369 57.6779 2.39369Z" fill="black"/>
<path d="M50.8382 46.5216C50.8178 39.6736 52.2266 34.2875 55.7996 29.5362C59.8217 24.2078 65.3751 21.2647 72.2352 20.476C76.6249 19.9566 80.9737 20.149 85.2 21.5148C91.223 23.4768 95.5718 27.2279 97.9402 32.7678C101.717 41.6549 101.799 50.542 96.8989 59.102C93.0605 65.8346 86.7721 69.3933 78.7482 70.2781C74.5219 70.7398 70.3364 70.5282 66.2939 69.2394C59.5154 67.085 55.1462 62.6414 52.7166 56.409C51.3487 52.8888 50.7974 49.1954 50.8382 46.5216ZM85.445 44.3672C85.2408 42.4628 85.0162 39.0196 84.5058 35.6148C83.9954 32.3254 82.9949 29.1322 80.9124 26.3622C78.3195 22.919 73.9911 22.265 70.8673 24.9195C69.336 26.2276 68.5193 27.9588 67.9068 29.767C66.8247 32.9217 66.4368 36.1726 66.2326 39.462C65.8855 45.0982 65.8855 50.6958 67.0901 56.2551C67.7231 59.2367 68.6622 62.1221 70.5814 64.642C73.2765 68.1622 78.0336 68.4123 81.0758 65.1614C82.4233 63.7187 83.1991 61.9682 83.73 60.16C85.1183 55.4856 85.2612 50.6958 85.445 44.3672Z" fill="black"/>
<path d="M239.961 60.2365C241.431 61.4484 241.451 61.5446 240.267 62.8334C236.776 66.6614 232.304 68.9697 227.118 69.97C221.238 71.1049 215.481 70.5855 210.091 67.9886C203.23 64.68 199.147 59.2939 197.555 52.3113C195.799 44.6553 196.717 37.2879 201.148 30.5553C205.027 24.6498 210.744 21.322 218.074 20.4756C221.789 20.0524 225.465 20.1101 229.017 21.322C234.938 23.3418 238.388 27.516 240.328 32.979C241.369 35.9221 241.676 38.9614 241.941 42.0007C242.023 42.8856 241.655 43.0587 240.798 43.0587C231.59 43.0395 222.361 43.0395 213.153 43.0395C211.54 43.0395 211.499 43.0395 211.581 44.5976C211.785 49.3297 212.643 53.8694 215.767 57.7743C218.604 61.333 222.463 63.1412 227.139 63.5066C230.446 63.7759 233.652 63.4874 236.653 62.0639C237.796 61.5446 238.858 60.8521 239.961 60.2365ZM226.914 39.3077C226.955 39.0769 227.016 38.923 226.996 38.7691C226.853 36.4992 226.812 34.2294 226.506 31.998C226.2 29.6897 225.628 27.4198 224.219 25.4193C222.627 23.1494 219.952 22.6685 217.604 24.2266C215.991 25.2846 215.011 26.8235 214.215 28.4586C212.704 31.6133 211.969 34.9219 211.724 38.3651C211.622 39.7309 211.601 39.7309 213.051 39.7116C216.828 39.6347 220.585 39.577 224.362 39.4808C225.22 39.4231 226.057 39.3462 226.914 39.3077Z" fill="black"/>
<path d="M278.855 35.6914C278.263 34.3064 277.752 32.9599 277.12 31.6711C275.752 28.8818 274.098 26.285 271.076 24.7653C269.014 23.7266 266.809 23.3226 264.481 23.8228C261.705 24.4191 259.683 26.6505 259.255 29.3435C258.765 32.3443 259.949 34.5757 262.481 36.307C265.278 38.2113 268.463 39.4232 271.627 40.6543C274.772 41.8854 277.814 43.2704 280.243 45.6364C282.469 47.8294 283.428 50.4839 283.551 53.4463C283.735 57.5243 282.693 61.2369 279.815 64.3724C277.017 67.4309 273.363 69.0852 269.239 69.9123C264.604 70.8357 259.908 70.701 255.273 69.9508C252.292 69.4699 249.352 68.662 246.392 67.9887C245.8 67.8541 245.514 67.5655 245.494 66.9115C245.453 62.795 245.392 58.6592 245.269 54.5427C245.228 53.2539 246.269 53.4655 246.984 53.2539C247.147 53.1962 247.658 53.7156 247.801 54.0426C249.046 57.0627 250.455 60.0058 252.844 62.4103C256.008 65.6227 259.908 66.8923 264.461 65.7766C267.401 65.0649 269.177 63.1028 269.81 60.2943C270.484 57.3512 269.565 54.8697 266.911 53.2732C264.706 51.9459 262.256 50.9071 259.847 49.9453C257.029 48.8296 254.15 47.8871 251.66 46.1558C247.494 43.2704 245.984 39.2885 246.31 34.5757C246.739 28.4586 251.129 23.4188 257.519 21.4183C261.705 20.1102 265.972 20.091 270.3 20.418C273.526 20.668 276.65 21.3028 279.712 22.3416C280.468 22.5917 280.733 22.9571 280.754 23.7266C280.774 26.9198 280.876 30.1129 280.937 33.3254C280.958 35.2105 280.937 35.2105 278.855 35.6914Z" fill="black"/>
<path d="M122.502 20.3028C122.502 23.8423 122.502 27.2855 122.502 30.9596C122.788 30.4979 122.992 30.2094 123.176 29.9016C124.748 26.997 126.708 24.3616 129.607 22.4765C133.364 20.0335 137.386 19.3218 141.755 20.8991C142.674 21.2262 142.858 21.6494 142.49 22.5342C140.877 26.4199 139.346 30.3248 137.753 34.3644C137.386 34.1913 137.059 34.0374 136.753 33.8835C132.792 31.8829 128.709 31.3251 124.462 33.0371C123.094 33.5949 122.318 34.3836 122.338 35.9994C122.4 41.4048 122.175 46.8101 122.257 52.2154C122.318 55.5818 122.604 58.9673 123.053 62.3336C123.421 65.2575 125.074 66.4501 128.219 66.5848C129.158 66.6232 130.097 66.7387 131.036 66.8156C131.097 66.9503 131.179 67.0464 131.179 67.1234C131.199 69.6625 131.485 69.1816 129.117 69.2009C120.215 69.2201 111.293 69.2201 102.391 69.2009C101.962 69.2009 101.207 69.0855 101.166 68.8931C101.003 68.2968 101.105 67.6428 101.146 67.008C101.146 66.9118 101.472 66.8156 101.656 66.7771C102.289 66.6425 102.922 66.5271 103.555 66.4501C105.494 66.2001 106.822 65.1421 107.209 63.4301C107.679 61.3526 107.965 59.2174 108.026 57.1014C108.19 51.3113 108.271 45.5213 108.23 39.7312C108.21 36.9228 108.026 34.1143 107.659 31.3251C107.189 27.7664 106.005 26.7854 102.269 26.3814C101.554 26.3045 101.064 26.266 101.023 25.3811C101.003 24.5348 101.411 24.3232 102.187 24.1693C108.782 22.9382 115.376 21.6686 121.971 20.399C122.073 20.3221 122.257 20.3221 122.502 20.3028Z" fill="black"/>
<path d="M161.131 41.6934C161.131 36.9998 161.131 32.2869 161.11 27.5933C161.11 27.0355 161.274 26.747 161.886 26.5738C164.949 25.6505 167.95 25.4197 170.747 27.2663C172.605 28.4974 173.81 30.2287 174.749 32.1331C176.28 35.2108 176.933 38.5194 177.117 41.8665C177.444 47.7527 176.852 53.5428 174.545 59.0828C173.687 61.141 172.544 63.0646 170.91 64.6805C168.787 66.7772 166.174 67.4312 163.213 67.0657C161.376 66.8542 161.376 66.8157 161.355 65.0844C161.294 61.1795 161.172 57.2938 161.151 53.3889C161.11 49.5032 161.131 45.5983 161.131 41.6934Z" fill="white"/>
<path d="M85.445 44.3672C85.2612 50.6958 85.1183 55.4856 83.73 60.1407C83.1787 61.9682 82.4233 63.6994 81.0758 65.1421C78.0336 68.3738 73.2765 68.1429 70.5814 64.6227C68.6623 62.1028 67.7231 59.2174 67.0901 56.2358C65.8855 50.6766 65.8855 45.0789 66.2326 39.4427C66.4368 36.1534 66.8247 32.9025 67.9068 29.7478C68.5193 27.9396 69.336 26.2083 70.8673 24.9003C73.9707 22.2649 78.3195 22.8997 80.9124 26.343C82.9949 29.113 84.0158 32.3062 84.5058 35.5955C85.0162 39.0196 85.2408 42.4628 85.445 44.3672Z" fill="white"/>
<path d="M226.914 39.308C226.057 39.3657 225.22 39.4427 224.383 39.4619C220.605 39.5389 216.849 39.6158 213.071 39.6928C211.622 39.712 211.642 39.712 211.744 38.3462C211.989 34.9222 212.724 31.5944 214.235 28.4397C215.032 26.8046 215.991 25.2657 217.624 24.2077C219.993 22.6496 222.647 23.1305 224.24 25.4004C225.648 27.4009 226.22 29.6708 226.526 31.9791C226.833 34.2297 226.873 36.4996 227.016 38.7502C226.996 38.9041 226.955 39.058 226.914 39.308Z" fill="white"/>
<path d="M70.561 70.6812C65.6201 70.008 61.2713 68.0267 57.9638 64.9489C55.2075 62.3713 53.4108 59.5436 52.1041 55.6579C50.042 49.5985 50.042 41.8079 52.1041 35.8832C54.105 30.1316 58.5763 25.1303 64.0889 22.5334C71.7044 18.9363 82.4029 19.1671 89.4467 23.072C95.7964 26.5922 99.6348 32.8439 100.696 41.3655C101.023 43.9816 100.819 49.4831 100.288 51.753C98.1852 61.0632 92.0601 67.5458 83.0766 70.008C82.117 70.2773 80.6062 70.5851 79.7487 70.7005C77.9316 70.9313 72.3373 70.9313 70.561 70.6812ZM81.2799 69.9695C84.8937 69.1808 87.793 67.9497 90.3655 66.1415C96.6539 61.7172 100.084 54.9461 100.411 46.3861C100.717 37.9415 98.0219 30.728 92.7951 26.0921C88.5484 22.3218 83.1991 20.5136 76.2778 20.5136C68.9481 20.5136 63.0476 22.6488 58.4946 26.9577C53.6354 31.5743 51.0628 37.9992 51.0628 45.559C51.0628 53.388 53.3904 59.7167 57.9025 64.1602C60.3934 66.6032 62.8026 68.0651 66.2735 69.2385C67.4985 69.6425 68.3968 69.8541 71.684 70.4312C71.9698 70.4889 73.8482 70.4889 75.8694 70.4504C78.6053 70.3542 79.9937 70.2388 81.2799 69.9695ZM73.5215 67.238C70.1731 65.7953 67.7843 61.4479 66.6001 54.5614C65.8447 50.1948 65.763 40.4806 66.4572 35.7101C67.4168 29.0159 69.4585 25.0726 72.6436 23.7453C74.8282 22.8219 77.8499 23.3798 79.7895 25.0341C84.0975 28.7082 86.2821 39.1533 85.3429 51.6568C84.6692 60.64 82.607 65.5067 78.7482 67.1995C77.3599 67.7766 74.8894 67.8151 73.5215 67.238ZM77.9724 66.9494C79.422 66.5455 81.1983 64.9681 82.1579 63.2561C84.1179 59.7167 84.9958 54.4845 85.0162 46.1745C85.0367 35.7678 83.3012 29.1314 79.6466 25.6689C78.1153 24.2069 77.0128 23.7645 75.0528 23.7645C70.704 23.7645 67.9272 28.0541 66.8451 36.4988C66.3347 40.3844 66.3347 49.6178 66.8451 53.0033C68.3968 63.5062 72.3781 68.5076 77.9724 66.9494ZM158.252 70.6812C156.231 70.4889 150.044 69.5078 147.88 69.0462L146.39 68.7192L146.512 61.1979C146.798 43.0775 146.818 33.1902 146.655 23.5721C146.471 14.1465 146.43 13.1462 146.043 11.7612C145.553 9.9915 144.858 8.76039 144.001 8.20254C143.674 7.99095 142.776 7.66393 142.02 7.51005C139.468 6.97144 139.611 7.06762 139.55 5.97116C139.509 5.33637 139.591 4.93241 139.754 4.79776C139.938 4.6054 160.784 0.854373 161.457 0.873609C161.641 0.873609 161.682 3.39353 161.58 12.0305C161.519 18.1668 161.498 23.1874 161.559 23.1874C161.621 23.1874 162.376 22.8796 163.254 22.4949C165.888 21.3408 168.317 20.8599 171.829 20.7444C174.177 20.6675 175.259 20.7252 176.464 20.956C184.324 22.4949 190.143 28.5543 192.185 37.3452C192.716 39.6342 192.92 45.3281 192.552 48.1751C192.246 50.5988 191.389 53.8882 190.511 56.0041C187.142 64.0256 179.935 69.2578 170.359 70.6235C168.154 70.9313 161.212 70.9698 158.252 70.6812ZM169.787 70.2196C175.994 69.3347 180.547 67.3342 184.386 63.7755C189.959 58.6395 192.634 51.3682 192.267 42.4235C192.083 37.8261 191.287 34.806 189.245 31.0742C186.509 26.0151 181.813 22.4757 176.464 21.4177C172.462 20.629 167.317 21.2446 163.397 22.9758C162.417 23.399 161.498 23.7645 161.314 23.7645C161.049 23.7645 161.029 22.341 161.09 12.5499L161.172 1.33527L160.355 1.48916C159.906 1.56611 155.312 2.37402 150.146 3.27811C144.981 4.18221 140.55 4.95165 140.305 5.00936C139.938 5.0863 139.856 5.22096 139.897 5.83651C139.938 6.50977 139.999 6.56748 140.755 6.72137C143.348 7.25998 143.797 7.45234 144.756 8.3949C145.94 9.54907 146.471 11.011 146.818 14.0695C147.104 16.5125 147.165 58.4856 146.9 64.6796L146.737 68.3537L148.84 68.7769C156.864 70.3735 164.806 70.9313 169.787 70.2196ZM162.499 67.2957C162.09 67.2572 161.641 67.1033 161.519 66.9687C161.172 66.5647 160.784 40.4614 161.029 32.8247L161.212 26.7653L162.846 26.3229C165.255 25.6689 167.848 25.7651 169.685 26.5922C173.381 28.2465 175.811 32.3245 177.056 38.9802C177.464 41.1539 177.403 48.6944 176.954 51.3875C176.015 56.9852 174.3 61.3133 171.931 64.1217C170.788 65.4683 168.869 66.7571 167.358 67.1803C166.419 67.4111 164.336 67.4688 162.499 67.2957ZM166.439 66.8533C167.93 66.584 169.073 66.0261 170.318 64.9874C173.422 62.352 175.749 56.9467 176.668 50.2141C177.036 47.4826 176.995 41.2501 176.586 38.961C175.463 32.7862 173.054 28.7274 169.542 27.0923C168.093 26.4191 167.868 26.3614 166.133 26.3614C164.908 26.3614 163.826 26.4768 162.927 26.7461L161.58 27.1308L161.478 34.152C161.355 43.1544 161.662 65.6991 161.927 66.3531C162.09 66.7571 162.274 66.8533 163.111 66.911C165.03 67.0456 165.357 67.0456 166.439 66.8533ZM216.951 70.5851C206.824 68.873 199.576 62.102 197.207 52.1377C196.901 50.8489 196.758 49.4254 196.697 46.6554C196.575 42.2696 196.962 39.5573 198.147 36.1718C200.454 29.67 204.578 25.0726 210.581 22.3218C216.91 19.4172 225.587 19.2248 231.181 21.8601C237.49 24.8417 241.206 30.7857 242.145 39.4419C242.268 40.6153 242.349 41.981 242.309 42.5197L242.247 43.4815L227.139 43.5392L212.03 43.5969L212.091 45.2704C212.234 49.1753 213.112 52.6186 214.766 55.6002C215.521 56.9659 216.114 57.6969 217.563 59.0819C220.83 62.1789 224.076 63.3908 229.201 63.3908C232.917 63.3908 235.591 62.6983 238.388 60.9863C239.164 60.5054 239.961 60.1206 240.144 60.1206C240.573 60.1206 241.553 61.3133 241.553 61.8326C241.553 62.679 238.634 65.4106 235.775 67.238C233.427 68.7192 229.732 70.0849 226.506 70.6043C224.24 70.9698 219.176 70.9698 216.951 70.5851ZM226.036 70.2196C230.773 69.4886 235.428 67.3534 238.776 64.3718C240.614 62.7367 241.226 61.9481 240.961 61.5249C240.287 60.4284 240.308 60.4284 238.572 61.4287C235.796 63.0253 234.428 63.4677 231.161 63.7947C227.363 64.1602 223.852 63.5639 220.626 61.9865C218.482 60.9478 215.909 58.5625 214.623 56.4081C212.867 53.465 211.908 50.0409 211.642 45.6359C211.52 43.7892 211.54 43.3276 211.785 43.1929C211.949 43.0967 218.747 43.0198 227.016 43.0198H241.961V42.4619C241.961 41.1924 241.512 37.7876 241.124 36.0179C239.532 28.8428 235.346 23.7453 229.364 21.687C226.975 20.8599 224.73 20.5328 221.769 20.5328C214.746 20.5328 208.988 22.7065 204.558 27.0539C201.025 30.5164 198.922 34.402 197.636 39.8651C197.248 41.5194 197.187 42.3658 197.187 45.8283C197.187 49.2715 197.248 50.1564 197.636 51.7337C200.025 61.8326 207.069 68.4691 217.175 70.1619C219.707 70.5658 223.505 70.6043 226.036 70.2196ZM211.663 39.7881C211.499 39.5573 211.887 36.1333 212.275 34.3636C213.194 30.0932 214.644 26.9962 216.644 25.0918C217.727 24.0723 218.217 23.7453 219.094 23.5144C219.707 23.3413 220.381 23.2067 220.626 23.2067C221.565 23.2067 222.667 23.6683 223.484 24.3801C225.689 26.3037 226.955 30.4202 227.2 36.518L227.323 39.5188L225.199 39.6342C220.932 39.8458 211.785 39.942 211.663 39.7881ZM223.362 39.2303L226.914 39.1149L226.792 36.7296C226.342 28.3427 224.158 23.7645 220.626 23.7645C216.787 23.7645 213.725 28.4196 212.439 36.1718C212.275 37.1143 212.153 38.2492 212.153 38.6724V39.4419L215.991 39.3842C218.074 39.3649 221.402 39.288 223.362 39.2303ZM257.785 70.7774C254.15 70.4119 248.352 69.2193 246.433 68.4306L245.494 68.0459L245.371 63.6601C245.31 61.2363 245.228 58.0047 245.187 56.485L245.126 53.6958L245.698 53.4457C246.004 53.3111 246.637 53.1764 247.086 53.1572L247.923 53.1187L248.638 54.7538C251.394 61.1402 254.62 64.5642 258.826 65.6222C260.439 66.0261 263.44 66.0261 264.645 65.6222C267.973 64.5065 269.81 62.1404 269.831 58.8895C269.851 55.0423 267.605 53.1957 259.132 50.0794C253.885 48.1366 252.047 47.1555 249.863 45.0396C247.515 42.7697 246.372 40.1921 246.167 36.595C245.902 32.2476 247.352 28.5735 250.557 25.4573C253.783 22.3218 257.968 20.6098 263.665 20.1289C268.687 19.7057 276.384 20.706 280.407 22.3026L281.142 22.5911L281.264 26.5153C281.346 28.6697 281.407 31.5551 281.427 32.9401L281.468 35.4408L280.488 35.787C278.916 36.3256 278.814 36.2679 277.957 34.0943C275.527 28.0157 272.689 25.1303 268.279 24.2454C265.584 23.7068 263.338 24.2839 261.705 25.9382C260.439 27.227 259.928 28.3619 259.806 30.2663C259.683 32.3438 260.071 33.4595 261.419 34.8445C263.073 36.5565 265.788 38.0184 271.199 40.1536C277.814 42.7697 280.978 44.9819 282.693 48.2135C283.816 50.3103 284.123 51.9838 284.02 55.2154C283.939 57.6392 283.857 58.1393 283.265 59.7552C281.366 65.0643 277.058 68.546 270.402 70.2003C268.156 70.7582 267.83 70.7774 263.338 70.8351C260.704 70.8351 258.234 70.8159 257.785 70.7774ZM267.483 70.2388C276.16 68.9885 281.754 64.6219 283.224 57.9277C283.939 54.6961 283.612 51.0989 282.367 48.6944C280.652 45.3281 277.732 43.2891 270.545 40.4229C265.196 38.2877 261.991 36.4795 260.684 34.8637C259.602 33.5172 259.255 32.4977 259.255 30.7087C259.275 28.0157 260.357 25.9574 262.44 24.6686C264.175 23.5914 266.339 23.3221 268.871 23.8992C271.934 24.5724 274.22 26.3421 276.303 29.6123C276.956 30.651 278.324 33.5749 278.977 35.3638C279.08 35.6524 279.202 35.6524 279.917 35.46C280.366 35.3446 280.795 35.1715 280.876 35.0945C280.958 35.0176 280.958 32.2668 280.856 28.9775L280.713 22.9951L279.978 22.7065C278.732 22.2064 275.466 21.3792 273.322 20.9945C271.709 20.706 270.28 20.6483 266.482 20.6483C261.95 20.6483 261.582 20.6867 259.704 21.1676C254.252 22.5526 250.23 25.4573 248.127 29.4776C247.004 31.6128 246.617 33.2671 246.637 35.8447C246.657 39.4996 247.719 42.2119 250.047 44.5587C252.068 46.5977 254.681 48.0404 259.132 49.5985C262.644 50.8104 266.258 52.5224 267.646 53.5996C268.463 54.2344 269.096 54.9461 269.565 55.7733C270.239 56.9467 270.28 57.1006 270.28 58.928C270.28 60.6977 270.219 60.967 269.626 62.1404C268.075 65.2182 264.971 66.7571 260.908 66.4493C255.375 66.0261 251.496 62.5829 248.332 55.3116C247.515 53.4073 247.454 53.3688 246.188 53.8304L245.616 54.042L245.759 60.8131C245.882 66.834 245.943 67.6227 246.249 67.8343C247.147 68.4883 253.027 69.7964 257.111 70.258C260.235 70.5658 265.094 70.5658 267.483 70.2388ZM0.265421 69.6232C0.102085 69.5655 0.020417 69.0846 0.020417 68.1998C0.020417 66.6032 -0.0816679 66.6801 3.18505 66.1031C5.69633 65.6606 6.59468 65.2182 7.6972 63.8524C9.84098 61.1979 10.3106 56.0811 10.3106 35.0368C10.3106 15.2814 9.90223 11.1072 7.6972 8.06789C6.71718 6.72137 5.04299 5.97116 2.26628 5.66338L0.122502 5.39408L0.0612509 3.81672L0 2.23937L0.67376 2.12395C1.04127 2.06624 14.0265 2.02777 29.5229 2.06624L57.6983 2.12395L57.8209 2.89339C57.9025 3.31659 58.0046 7.66393 58.0863 12.5307L58.2292 21.3985L56.7592 21.8409C54.5746 22.4757 54.595 22.4757 53.5945 20.0135C51.1853 13.9926 48.4086 10.5301 44.6111 8.76039C41.9977 7.54852 40.7931 7.41386 33.4022 7.41386H26.9708L26.8687 8.41414C26.6646 10.2993 26.3379 22.4949 26.3379 28.2273V33.9596L28.2162 33.9404C29.2575 33.9404 31.2992 33.8634 32.7692 33.7865C34.9743 33.6711 35.6276 33.5557 36.5464 33.1517C38.8127 32.1707 40.3439 29.997 41.2831 26.4576L41.7731 24.6301L43.4473 24.5724L45.1215 24.5147V36.0756V47.6364L43.4473 47.5787L41.7731 47.521L41.3035 45.6936C40.4052 42.2696 38.7106 39.8074 36.5872 38.9225C35.6072 38.5186 33.198 38.2877 28.5225 38.1531L26.3175 38.0954V42.4235C26.3175 47.1555 26.6033 53.5611 26.9504 57.0236C27.4404 61.8711 28.7471 64.5449 31.1155 65.5067C31.5646 65.6991 32.9938 65.9876 34.2801 66.18C35.5664 66.3531 36.7914 66.584 36.9751 66.6801C37.4651 66.9302 37.506 69.4309 37.016 69.604C36.6689 69.7579 0.632926 69.7579 0.265421 69.6232ZM36.9751 68.1036C36.9751 67.5265 36.9139 67.0456 36.8526 67.0456C35.8726 67.0456 31.34 66.1223 30.6254 65.776C28.0325 64.5449 26.8279 61.621 26.3787 55.3886C26.052 50.9643 25.7254 37.9607 25.9295 37.7491C26.1133 37.576 34.7497 37.8838 35.7705 38.1146C38.5676 38.7494 40.7114 41.327 41.7935 45.3474L42.2631 47.1171L43.5086 47.1748L44.754 47.2325V36.0756V24.9187H43.4269C42.1815 24.9187 42.0998 24.9379 42.0998 25.3611C42.0998 26.0921 41.3239 28.4004 40.5889 29.8431C39.4456 32.113 37.8326 33.4979 35.7705 33.9404C35.2601 34.0558 32.8713 34.2289 30.4621 34.3251C27.0729 34.479 26.052 34.4597 25.9091 34.2866C25.6641 33.9596 26.2154 8.62574 26.4808 7.45234L26.5829 7.00991L34.0759 7.06762L41.5689 7.12532L43.3044 7.72164C47.3469 9.0874 50.2462 11.8766 52.6758 16.7049C53.227 17.7821 53.9212 19.3787 54.2275 20.2251C54.5337 21.0715 54.8196 21.7832 54.84 21.8217C54.8604 21.8601 55.5341 21.687 56.3304 21.4754L57.78 21.0715L57.6779 14.7813C57.6167 11.3188 57.5146 7.18303 57.4533 5.5672L57.3513 2.60485H28.8696H0.408339L0.46959 3.79749L0.530841 4.99012L2.36837 5.20172C4.8184 5.49026 5.71675 5.74033 6.69676 6.41359C8.1872 7.4331 9.10597 8.93351 9.69806 11.2995C10.5964 14.9736 10.9231 23.2451 10.7802 38.7494C10.6168 55.1193 10.3922 58.524 9.28972 61.8326C8.37096 64.5642 6.67635 66.0069 3.87922 66.4493C3.10338 66.5647 2.02128 66.7571 1.4496 66.8725L0.428756 67.0841V68.1228V69.1616H18.7019H36.9751V68.1036ZM100.921 69.5848C100.737 69.4694 100.676 69.0269 100.717 68.1036L100.778 66.7763L101.493 66.6417C101.881 66.5647 102.738 66.4108 103.371 66.2954C105.352 65.9492 106.474 64.9297 107.128 62.9483C107.659 61.3325 107.883 56.1772 107.883 45.809C107.904 33.1325 107.618 30.1509 106.25 28.4389C105.515 27.5155 104.984 27.2655 103.187 26.9385C102.309 26.7846 101.37 26.6114 101.125 26.5537C100.717 26.4768 100.676 26.3421 100.676 25.3996C100.676 24.4762 100.737 24.3224 101.125 24.1685C101.738 23.9376 121.971 20.1289 122.604 20.1289H123.114L123.012 22.9758C122.951 24.5339 122.869 26.8038 122.828 28.0157L122.726 30.2278L123.461 28.9775C125.809 24.9956 128.443 22.5142 131.934 21.0137C133.854 20.1866 135.14 19.9365 137.508 19.9365C140.326 19.9365 143.143 20.8022 143.143 21.6678C143.143 22.2449 138.182 34.5944 137.917 34.6906C137.774 34.7483 136.814 34.3828 135.773 33.9211C133.588 32.9401 131.526 32.44 129.546 32.4592C127.055 32.4592 124.298 33.3248 123.196 34.4405C122.726 34.9214 122.726 34.9407 122.604 42.0003C122.481 49.0022 122.726 57.543 123.155 60.967C123.502 63.8909 124.339 65.3336 126.034 66.0069C126.606 66.2377 130.199 66.6994 131.363 66.6994C131.444 66.6994 131.506 67.3726 131.465 68.1998L131.404 69.7002L116.295 69.7387C107.985 69.7194 101.064 69.6617 100.921 69.5848ZM131.097 68.1228V67.0841L129.505 66.9494C125.85 66.6609 124.85 66.3146 123.89 65.0066C122.502 63.1215 122.196 59.6397 122.196 45.559V34.5559L122.706 34.0558C123.339 33.421 125.34 32.5169 126.749 32.2476C129.607 31.6898 133.282 32.1707 136.14 33.4979C136.957 33.8827 137.672 34.152 137.712 34.1135C137.794 34.0366 142.51 22.3218 142.653 21.8217C142.715 21.5908 142.449 21.3985 141.653 21.1099C139.958 20.4751 138.488 20.2443 136.59 20.3597C131.526 20.629 127.014 23.803 123.768 29.4007C123.237 30.324 122.665 31.0934 122.522 31.0934C122.318 31.0934 122.298 30.0355 122.4 25.7843L122.543 20.4751L122.053 20.5906C121.787 20.6483 117.704 21.4369 112.987 22.3218C102.881 24.2262 101.472 24.5147 101.227 24.6494C101.125 24.7071 101.044 25.0533 101.044 25.4188C101.044 26.1498 100.962 26.1113 103.249 26.4576C106.413 26.9385 107.516 28.3812 107.985 32.6323C108.598 38.1723 108.353 59.7359 107.638 62.679C107.271 64.1794 106.332 65.6414 105.392 66.1415C105.045 66.3339 103.943 66.6417 102.942 66.8148L101.125 67.1418L101.064 68.1421V69.1616H116.091H131.118V68.1228H131.097Z" fill="#33629A"/>
</g>
<defs>
<clipPath id="clip0_28237_35">
<rect width="284" height="70" fill="white" transform="translate(0 0.874023)"/>
</clipPath>
</defs>
</svg>
