<svg width="284" height="68" viewBox="0 0 284 68" fill="none" xmlns="http://www.w3.org/2000/svg">
<path d="M38.9452 66.5468H33.3037L31.779 58.632C29.6443 63.3809 27.0523 67.4966 19.2762 67.4966C5.09629 67.4966 0.0646973 54.0414 0.0646973 34.7292C0.0646973 19.691 3.41909 0.220549 20.6485 0.220549C35.8957 0.220549 38.1828 14.9421 38.7927 22.3821L28.1196 24.4399C27.0523 17.1583 26.29 11.9345 20.6485 11.9345C17.2941 11.9345 15.7694 13.6758 14.8545 16.5251C13.4823 20.7991 13.3298 30.2969 13.3298 35.3624C13.3298 51.0337 15.3119 55.7826 20.8009 55.7826C24.4603 55.7826 27.6622 54.0414 27.6622 42.8023H19.8861V31.8799H38.9452V66.5468Z" fill="black"/>
<path d="M41.0199 1.19921H53.9801V54.5451H69.9897V66.5757H41.0199V1.19921Z" fill="black"/>
<path d="M86.831 41.8585L90.1854 23.8127C90.9478 19.8553 91.2527 16.2144 91.7101 13.3651C92.0151 19.2221 92.4725 21.7548 93.0824 24.2876L96.5892 41.8585H86.831ZM85.9162 1.17625L71.4313 66.5527H83.0192L85.4587 52.4643H97.9615L100.554 66.5527H113.514L99.3337 1.17625H85.9162Z" fill="black"/>
<path d="M114.573 1.19921H132.26L137.139 28.7428C138.206 34.7581 138.816 41.5648 139.121 47.4218C139.578 40.2985 140.951 30.8007 141.713 27.3181L147.202 1.19921H164.584V66.5757H152.234V29.376C152.234 25.102 152.386 22.4109 152.843 9.58893C152.234 13.8629 150.709 25.4186 150.099 28.7428L142.475 66.5757H134.394L126.923 28.1096C126.161 23.6773 125.093 15.7625 124.484 9.58893C124.636 14.6544 124.789 22.7275 124.789 27.793V66.5757H114.573V1.19921Z" fill="black"/>
<path d="M185.94 11.8783C188.379 11.8783 189.751 12.8281 190.819 16.1524C192.039 19.9515 192.039 29.291 192.039 33.2484C192.039 34.1982 192.039 45.5955 191.276 50.0278C190.666 53.5103 189.599 55.8848 186.245 55.8848C183.043 55.8848 181.975 53.6686 181.213 51.1359C180.146 46.5453 180.146 40.2134 180.146 34.5147C180.146 26.2833 180.298 19.16 181.518 15.9941C182.433 12.9864 183.958 11.8783 185.94 11.8783ZM186.245 0.164396C171.455 0.164396 166.423 13.1447 166.423 33.0901C166.423 43.5377 167.643 53.1937 171.76 60.0005C172.522 61.2669 176.181 67.4404 185.94 67.4404C201.492 67.4404 205.761 53.5103 205.761 34.1982C205.761 14.5694 201.492 0.164396 186.245 0.164396Z" fill="black"/>
<path d="M220.925 1.19913V42.8311C220.925 50.9042 221.535 55.4948 227.329 55.4948C233.427 55.4948 233.58 49.6379 233.58 42.0396V1.19913H244.558V42.1979C244.558 53.7536 243.948 67.5254 226.566 67.5254C212.234 67.5254 208.117 59.9272 208.117 43.306V1.19913H220.925Z" fill="black"/>
<path d="M259.216 11.4865H262.875C266.992 11.4865 269.889 13.7027 269.889 20.5094C269.889 26.683 267.907 30.1655 262.875 30.1655H259.216V11.4865ZM246.56 66.5737H259.216V40.9297H263.332L270.346 66.5737H283.916L274.463 38.2386C277.36 36.3391 282.696 33.0149 282.696 20.6677C282.696 18.2933 282.696 10.5368 276.902 4.83808C273.548 1.67215 269.736 1.35555 262.875 1.35555H246.56V66.5737Z" fill="black"/>
</svg>
