<svg width="282" height="69" viewBox="0 0 282 69" fill="none" xmlns="http://www.w3.org/2000/svg">
<path d="M29.6631 1.41212C29.6664 1.40056 30.1203 1.41725 30.1203 1.41725L31.337 24.3382L30.9276 24.3574C30.0791 21.7573 27.792 1.59949 18.8684 1.59949C12.0102 1.59949 9.70817 26.3171 9.70817 34.5987C9.70817 45.3238 11.4018 67.829 19.1003 67.829C22.8114 67.829 24.8257 62.8662 24.8257 56.3184V35.406H20.7068V34.5846H37.3304V35.406H33.1589V68.1755C33.149 68.1729 32.6837 68.1857 32.6804 68.1793C32.0769 66.8151 31.9898 64.0097 29.285 64.0097C26.2858 64.0097 23.0712 68.8569 18.903 68.8467C5.11734 68.8133 0.31604 48.9352 0.31604 34.6039C0.31604 22.7314 5.87042 0.902619 18.8915 0.902619C21.0734 0.902619 22.6092 1.34281 24.3505 3.30765C25.6264 4.74887 28.0402 5.07741 29.0729 3.23193C29.3853 2.67495 29.5283 1.95755 29.6631 1.41212Z" fill="black"/>
<path d="M216.668 66.9758V2.61107H212.98V1.82694H228.683V2.61107H224.979L225.005 66.9758H228.683V67.7715H212.98V66.9758H216.668V2.61107Z" fill="black"/>
<path d="M171.076 66.9708H180.919C185.535 66.8284 191.188 63.4647 191.188 54.082C191.188 52.2917 191.216 50.4218 191.216 48.5481L192.092 48.552V67.7588L162.283 67.7729L182.519 2.61639H173.081C167.112 2.61639 163.819 9.66721 163.819 16.1508C163.819 17.814 163.754 21.034 163.754 21.034L162.922 21.0417V1.8284H191.882L171.076 66.9708Z" fill="black"/>
<path d="M71.1392 2.62565V34.5995C72.8492 34.5918 75.6807 34.7432 78.6223 31.7825C81.3551 29.0309 82.4387 22.0943 82.4387 16.9249C82.4387 11.409 78.9018 2.61153 74.3603 2.61153L71.1392 2.62565ZM59.1853 1.83253L76.7478 1.83638C85.1567 1.83638 90.6091 9.12976 90.6091 17.8862C90.6091 26.6131 86.0216 34.7458 78.9495 34.7458C78.0041 34.7458 78.0912 35.1885 78.9495 35.1885C83.1868 35.1885 86.3685 38.9719 87.0114 39.9781C89.6028 44.0463 87.8171 62.7655 90.4102 64.6149C92.597 66.1754 94.2035 63.7358 94.4896 63.3572L94.756 63.5086C94.7149 63.6806 92.8404 68.5073 88.1098 68.5073C84.18 68.5073 82.1904 64.7381 81.6248 62.378C80.7056 58.533 81.0049 46.7722 80.5034 44.407C80.066 42.3446 78.8788 36.1896 75.1693 35.6518C73.5152 35.4118 72.9939 35.4118 71.1408 35.4208C71.131 35.4208 71.1441 66.9634 71.1441 66.9634H74.8487V67.7732H58.6821V66.9634H62.8339L62.8175 2.62565H59.1853V1.83253Z" fill="black"/>
<path d="M118.665 47.6941H130.449L124.772 21.9023L118.665 47.6941ZM112.782 66.9613L128.665 0.901261L143.345 66.9626L146.683 66.9703V67.7686L131.411 67.7673V66.9575H134.756L130.599 48.5334H118.433L114.12 66.9729H118.408V67.7634H109.162V66.9793L112.782 66.9613V66.9613Z" fill="black"/>
<path d="M253.664 47.6941H265.45L259.771 21.9023L253.664 47.6941ZM247.783 66.9613L263.665 0.901261L278.347 66.9626L281.683 66.9703V67.7686L266.411 67.7673V66.9575H269.755L265.598 48.5334H253.432L249.119 66.9741H253.408V67.7634H244.162V66.9806L247.783 66.9613V66.9613Z" fill="black"/>
</svg>
