<svg width="274" height="52" viewBox="0 0 274 52" fill="none" xmlns="http://www.w3.org/2000/svg">
<path fill-rule="evenodd" clip-rule="evenodd" d="M17.7758 9.51519C17.0946 9.51519 16.5263 9.39182 15.8826 9.27089V27.1786C15.8826 27.6048 15.8446 27.7257 15.6921 27.9073L9.32621 34.4042C10.2739 35.1329 11.4105 35.6199 12.5867 35.6199C16.6017 35.6199 21.1476 32.0963 23.2715 23.295C23.3844 22.808 23.6488 22.6871 23.6488 23.5367V24.1447C23.6488 33.7956 19.0633 42.4759 12.2828 42.4759C4.89384 42.4759 0.461365 33.5513 0.461365 24.2654C0.461365 17.2852 2.84533 10.7892 8.26503 8.05779C8.49354 7.93354 8.53155 8.11519 8.37852 8.29947C5.99237 11.2727 4.70334 16.1304 4.70334 20.9871C4.70334 26.1474 5.99237 31.2467 8.87137 33.9807L10.4629 32.0354C10.9953 31.3676 11.1066 30.7623 11.1066 29.7884V7.69169C9.36422 6.66042 7.81238 6.05247 6.3702 6.05247C4.40099 6.05247 2.619 7.44652 0.87666 10.8492C0.6878 11.2127 0.572671 11.2127 0.572671 10.8492C0.801182 3.98974 4.62732 0.103516 8.41653 0.103516C12.7751 0.103516 16.7906 3.50622 21.1871 3.50622C22.739 3.50622 24.3321 2.95584 25.6576 1.80364C25.8465 1.68272 25.884 1.92439 25.8085 2.16624C24.4455 7.63167 21.1096 9.51519 17.7758 9.51519ZM38.3908 41.9315C38.2377 42.1733 38.2377 42.1133 38.1242 41.9924L35.0929 37.6827C34.7889 37.2557 34.6379 36.8931 34.6379 36.1035V19.4688C34.6379 19.2879 34.6379 19.1036 34.4865 18.9218L33.4634 17.4635C33.3483 17.3461 33.1974 17.2852 33.0465 17.4061L31.1152 18.8609V34.5276C31.1152 34.7694 31.0757 35.012 31.2282 35.1929L32.1004 36.406C32.3274 36.7088 32.7045 37.0747 33.0465 36.8931L33.3483 36.7088C33.7277 36.4661 33.8054 36.8295 33.5769 37.1347L30.0921 41.9315C29.939 42.1733 29.9011 42.1133 29.7882 41.9924L26.7181 37.6218C26.341 37.1347 26.341 37.014 26.341 36.2244V9.27089C26.341 8.96832 26.341 8.90479 26.1504 8.66312L25.771 8.11519C25.3932 7.57077 25.2423 7.69169 24.7495 8.05779L23.9907 8.60222C23.8773 8.66312 23.7638 8.42039 23.9526 8.11519L27.9682 2.71329C28.1212 2.47144 28.1212 2.53234 28.2342 2.65327L30.6598 6.23674C30.9638 6.72114 31.1152 7.02389 31.1152 7.81262V17.9504L36.1534 12.8519C36.3064 12.7301 36.4574 12.7301 36.5709 12.9119L39.0346 16.5565C39.3743 17.0409 39.4498 17.4061 39.4498 18.0113V34.6461C39.4498 34.9513 39.4498 35.012 39.6403 35.2538L40.5879 36.527C40.9658 37.0747 41.1167 36.9531 41.6095 36.5903L42.3683 36.0434C42.4812 35.9825 42.5968 36.2244 42.4058 36.527L38.3908 41.9315ZM54.531 21.8376L47.8238 28.5762V33.7355C47.8238 34.2191 47.8618 34.4042 48.1278 34.5852L50.2875 36.406C50.6648 36.7088 51.3107 37.014 51.6902 36.6479L53.6985 34.7694C54.0382 34.4642 54.3047 34.6461 54.1142 34.8912L48.6207 41.9924C48.5056 42.1733 48.5452 42.1133 48.3938 41.9924L43.5044 37.8634C43.1249 37.5617 43.0121 37.4375 43.0121 36.5903V17.4061C43.0121 17.1009 43.0891 16.98 43.3139 16.8591L51.3107 12.7301C51.4242 12.6703 51.5371 12.6094 51.6125 12.8519L54.6065 21.3506C54.682 21.5349 54.682 21.7167 54.531 21.8376ZM47.9015 15.9485L47.8238 16.0061V27.789L50.4765 24.2654C50.629 24.0846 50.629 23.9602 50.5535 23.7819L47.9015 15.9485ZM81.9212 34.3433L76.4651 41.8715C76.3126 42.0524 76.1991 42.1733 76.0483 42.0524C72.7877 39.4426 69.9848 37.9844 67.1434 37.9844C64.793 37.9844 62.4825 39.2584 59.9058 41.9924C59.6773 42.2342 59.5265 42.1733 59.6773 41.7507C61.0424 38.2271 62.8618 34.5276 65.135 32.825C65.1725 32.5833 65.212 31.7937 65.212 30.6989V12.8519C65.212 12.6094 65.2881 12.4884 65.439 12.3675L69.7579 8.17872C68.8102 8.48129 67.7496 8.72647 66.8394 8.72647C62.8999 8.72647 60.891 5.56894 60.1702 0.590541C60.1322 0.345366 60.2076 0.285341 60.3211 0.345366C62.3315 1.92439 63.9984 2.47144 65.6279 2.47144C68.3554 2.47144 72.2574 0.103516 74.6458 0.103516C79.4575 0.103516 82.1117 3.32194 82.1117 13.8258V33.6746C82.1117 33.9807 82.0341 34.1617 81.9212 34.3433ZM77.3358 13.8258C77.3358 8.23944 76.2371 6.72114 74.5323 6.72114C73.2806 6.72114 71.6892 7.51074 69.9848 8.11519V26.3281C69.9848 26.6342 69.9094 26.8761 69.7959 27.0003L65.2881 32.7617C66.46 31.9754 67.7496 31.6119 69.0371 31.6119C71.8026 31.6119 74.7228 33.2485 77.0715 35.012C77.2603 35.1929 77.3358 35.012 77.3358 34.7059V13.8258ZM95.6813 41.9315C95.5305 42.1733 95.4925 42.1133 95.379 41.9924L91.9301 37.1347L87.8376 41.9924C87.6866 42.1733 87.6486 42.1133 87.4977 41.9315L84.8831 38.1662C84.4657 37.6218 84.4283 37.4975 84.4283 36.7686V19.0452C84.4283 18.74 84.5792 18.6801 84.6546 18.6192L93.4461 12.791C93.5971 12.6703 93.7479 12.6703 93.901 12.9119L96.2496 16.6772C96.5895 17.2217 96.7061 17.5277 96.7061 17.8905V35.012L97.3878 35.9825C98.2205 37.1347 98.3333 37.0747 98.7128 36.7686L99.2437 36.3451C99.585 36.0434 99.8493 36.2851 99.5455 36.7088L95.6813 41.9315ZM91.9301 19.3479C91.9301 18.9818 91.8906 18.8009 91.7038 18.4983L90.3387 16.3146C90.2632 16.1904 90.2632 16.2537 90.1482 16.3146L89.2004 16.98V34.5276C89.2004 35.1329 89.2781 35.4357 89.5441 35.8009L90.0369 36.527C90.3766 37.014 90.7936 37.2557 91.2864 36.8931L91.9301 36.406V19.3479ZM104.51 41.9315C104.357 42.1733 104.32 42.1133 104.206 41.9924L101.139 37.6218C100.759 37.1347 100.759 37.014 100.759 36.2244V19.4688C100.759 19.167 100.759 19.1036 100.571 18.8609L100.191 18.3165C99.8119 17.7696 99.6605 17.8905 99.1682 18.2531L98.4088 18.8009C98.296 18.8609 98.1825 18.6192 98.3713 18.3165L102.389 12.9119C102.542 12.6703 102.542 12.7301 102.653 12.8519L105.079 16.4321C105.383 16.9191 105.533 17.2217 105.533 18.0113V34.5276C105.533 34.7694 105.496 35.012 105.647 35.1929L106.519 36.406C106.748 36.7088 107.125 37.0747 107.465 36.8931L107.769 36.7088C108.148 36.4661 108.224 36.8295 107.997 37.1347L104.51 41.9315ZM102.577 11.3971C102.466 11.5779 102.426 11.5179 102.313 11.3971L99.432 7.32909C99.3565 7.20467 99.3565 7.08392 99.47 6.90209L102.313 2.89494C102.426 2.77402 102.466 2.77402 102.577 2.89494L105.458 6.96299C105.571 7.08392 105.571 7.20467 105.458 7.32909L102.577 11.3971ZM113.036 41.9315C112.884 42.1733 112.847 42.1133 112.733 41.9924L109.662 37.6218C109.285 37.1347 109.285 37.014 109.285 36.2244V9.27089C109.285 8.96832 109.285 8.90479 109.096 8.66312L108.716 8.11519C108.337 7.57077 108.186 7.69169 107.693 8.05779L106.936 8.60222C106.821 8.66312 106.708 8.42039 106.899 8.11519L110.914 2.71329C111.065 2.47144 111.065 2.53234 111.18 2.65327L113.604 6.23674C113.908 6.72114 114.059 7.02389 114.059 7.81262V34.5276C114.059 34.7694 114.021 35.012 114.174 35.1929L115.044 36.406C115.271 36.7088 115.65 37.0747 115.99 36.8931L116.296 36.7088C116.674 36.4661 116.749 36.8295 116.522 37.1347L113.036 41.9315ZM130.277 46.1205L126.108 51.5224C125.995 51.7033 125.918 51.6459 125.845 51.5824C123.645 49.2145 121.904 48.1232 120.009 48.1232C118.682 48.1232 117.357 48.5458 115.65 49.2754C115.499 49.3389 115.461 49.1544 115.537 48.9728C117.317 44.6629 119.516 43.329 121.563 43.329C124.593 43.329 127.435 46.3021 128.572 47.5145L128.685 47.3936C128.987 46.3021 129.103 45.2673 129.103 44.297C129.103 41.2028 127.511 38.7139 125.541 37.1347L121.485 41.9315C121.296 42.1133 121.259 42.1133 121.146 41.9924L118.417 38.0453C118.038 37.4975 118.038 37.4975 118.038 36.6479V19.5896C118.038 19.2879 118.038 19.227 117.849 18.9818L117.317 18.2531C116.939 17.7087 116.789 17.8296 116.296 18.1931L115.537 18.74C115.424 18.8009 115.311 18.5592 115.499 18.2531L119.516 12.8519C119.668 12.6094 119.668 12.6703 119.78 12.791L122.358 16.5565C122.659 17.0409 122.812 17.3461 122.812 18.1357V34.7059C122.812 35.012 122.85 35.3139 122.963 35.4955L123.874 36.8295C124.137 37.2557 124.63 37.0747 124.934 36.8295L125.541 36.406V19.5296C125.541 19.227 125.541 19.227 125.352 18.9818L124.819 18.2531C124.441 17.7087 124.326 17.7696 123.796 18.0113L123.494 18.1357C123.381 18.1931 123.267 17.9504 123.456 17.6487L127.019 12.8519C127.169 12.6094 127.169 12.6703 127.283 12.791L129.86 16.5565C130.163 17.0409 130.314 17.3461 130.314 18.1357V34.1016C131.906 35.9825 132.589 37.8634 132.589 39.7454C132.589 41.8715 131.944 43.9342 130.277 46.1205ZM156.194 9.51519C155.513 9.51519 154.944 9.39182 154.301 9.27089V27.1786C154.301 27.6048 154.261 27.7257 154.11 27.9073L147.746 34.4042C148.692 35.1329 149.829 35.6199 151.005 35.6199C155.02 35.6199 159.566 32.0963 161.687 23.295C161.803 22.808 162.069 22.6871 162.069 23.5367V24.1447C162.069 33.7956 157.484 42.4759 150.701 42.4759C143.312 42.4759 138.877 33.5513 138.877 24.2654C138.877 17.2852 141.266 10.7892 146.684 8.05779C146.91 7.93354 146.95 8.11519 146.797 8.29947C144.409 11.2727 143.121 16.1304 143.121 20.9871C143.121 26.1474 144.409 31.2467 147.289 33.9807L148.881 32.1563C149.449 31.5519 149.527 30.8832 149.527 29.9127V7.69169C147.782 6.66042 146.229 6.05247 144.79 6.05247C142.819 6.05247 141.039 7.44652 139.297 10.8492C139.106 11.2127 138.991 11.2127 138.991 10.8492C139.219 3.98974 143.046 0.103516 146.836 0.103516C151.194 0.103516 155.209 3.50622 159.604 3.50622C161.159 3.50622 162.749 2.95584 164.076 1.80364C164.266 1.68272 164.302 1.92439 164.229 2.16624C162.864 7.63167 159.528 9.51519 156.194 9.51519ZM175.367 21.8376L168.661 28.5762V33.7355C168.661 34.2191 168.699 34.4042 168.963 34.5852L171.123 36.406C171.502 36.7088 172.148 37.014 172.525 36.6479L174.534 34.7694C174.876 34.4642 175.14 34.6461 174.951 34.8912L169.456 41.9924C169.343 42.1733 169.38 42.1133 169.229 41.9924L164.342 37.8634C163.962 37.5617 163.849 37.4375 163.849 36.5903V17.4061C163.849 17.1009 163.923 16.98 164.151 16.8591L172.148 12.7301C172.261 12.6703 172.374 12.6094 172.452 12.8519L175.444 21.3506C175.521 21.5349 175.521 21.7167 175.367 21.8376ZM168.736 15.9485L168.661 16.0061V27.789L171.314 24.2654C171.465 24.0846 171.465 23.9602 171.389 23.7819L168.736 15.9485ZM180.673 41.9315C180.52 42.1733 180.485 42.1133 180.371 41.9924L177.3 37.6218C176.922 37.1347 176.922 37.014 176.922 36.2244V9.27089C176.922 8.96832 176.922 8.90479 176.731 8.66312L176.354 8.11519C175.975 7.57077 175.822 7.69169 175.331 8.05779L174.572 8.60222C174.459 8.66312 174.344 8.42039 174.534 8.11519L178.55 2.71329C178.701 2.47144 178.701 2.53234 178.816 2.65327L181.241 6.23674C181.545 6.72114 181.696 7.02389 181.696 7.81262V34.5276C181.696 34.7694 181.657 35.012 181.808 35.1929L182.682 36.406C182.908 36.7088 183.288 37.0747 183.627 36.8931L183.931 36.7088C184.311 36.4661 184.385 36.8295 184.158 37.1347L180.673 41.9315ZM196.474 21.8376L189.768 28.5762V33.7355C189.768 34.2191 189.804 34.4042 190.071 34.5852L192.23 36.406C192.608 36.7088 193.253 37.014 193.631 36.6479L195.64 34.7694C195.981 34.4642 196.245 34.6461 196.057 34.8912L190.561 41.9924C190.45 42.1733 190.488 42.1133 190.335 41.9924L185.447 37.8634C185.068 37.5617 184.953 37.4375 184.953 36.5903V17.4061C184.953 17.1009 185.03 16.98 185.257 16.8591L193.253 12.7301C193.366 12.6703 193.48 12.6094 193.555 12.8519L196.549 21.3506C196.625 21.5349 196.625 21.7167 196.474 21.8376ZM189.84 15.9485L189.768 16.0061V27.789L192.421 24.2654C192.57 24.0846 192.57 23.9602 192.494 23.7819L189.84 15.9485ZM210.266 46.1205L206.098 51.5224C205.985 51.7033 205.909 51.6459 205.834 51.5824C203.634 49.2145 201.892 48.1232 199.998 48.1232C198.671 48.1232 197.344 48.5458 195.64 49.2754C195.488 49.3389 195.451 49.1544 195.526 48.9728C197.307 44.6629 199.505 43.329 201.552 43.329C204.584 43.329 207.423 46.3021 208.561 47.5145L208.675 47.3936C208.977 46.3021 209.092 45.2673 209.092 44.297C209.092 41.2028 207.501 38.7139 205.53 37.1347L201.437 41.9924C201.286 42.1733 201.172 42.1133 201.059 41.9315L198.482 38.1662C198.103 37.6218 198.027 37.3799 198.027 36.7686V19.0452C198.027 18.74 198.178 18.6801 198.254 18.6192L206.97 12.8519C207.198 12.6703 207.348 12.6703 207.423 12.791L209.851 16.6772C210.153 17.1616 210.304 17.5277 210.304 17.9504V34.1016C211.895 35.9825 212.578 37.8634 212.578 39.7454C212.578 41.8715 211.933 43.9342 210.266 46.1205ZM205.53 19.227C205.53 18.9818 205.492 18.8009 205.341 18.5592L203.938 16.3146C203.863 16.1904 203.825 16.2537 203.71 16.3146L202.8 16.98V34.4042C202.8 35.3748 202.955 35.4955 203.559 36.406C203.9 36.8931 204.087 37.0747 204.431 37.0747C204.735 37.0747 205.226 36.7088 205.53 36.406V19.227ZM222.618 20.561C222.429 20.8062 222.24 20.9271 222.052 20.9271C221.861 20.9271 221.67 20.8062 221.483 20.561L219.171 17.4061L218.944 17.7087V34.5852C218.944 34.9513 218.944 35.012 219.095 35.1929L219.701 36.0434C220.345 36.8931 220.496 37.014 221.179 36.5903L221.634 36.2851C221.937 36.1035 222.012 36.3451 221.823 36.6479L217.919 41.9315C217.77 42.1733 217.731 42.1133 217.617 41.9924L214.623 37.6827C214.283 37.1956 214.168 37.014 214.168 36.3451V19.0452L213.26 17.5277C213.183 17.4061 213.147 17.4061 213.032 17.5277L211.895 18.5592C211.555 18.8609 211.44 18.4374 211.669 18.1357L215.571 12.8519C215.722 12.6703 215.799 12.6703 215.875 12.791L218.527 16.98L221.141 12.8519C221.293 12.6703 221.406 12.6094 221.557 12.8519L223.566 15.8278C223.945 16.372 224.171 16.6772 224.4 16.6772C224.551 16.6772 224.742 16.5565 224.97 16.3146L225.498 15.7643C225.84 15.4017 225.991 15.9485 225.802 16.2537L222.618 20.561ZM236.601 41.9315C236.45 42.1733 236.41 42.1133 236.297 41.9924L232.848 37.1347L228.757 41.9924C228.606 42.1733 228.568 42.1133 228.415 41.9315L225.802 38.1662C225.386 37.6218 225.348 37.4975 225.348 36.7686V19.0452C225.348 18.74 225.498 18.6801 225.574 18.6192L234.367 12.791C234.517 12.6703 234.668 12.6703 234.819 12.9119L237.169 16.6772C237.511 17.2217 237.624 17.5277 237.624 17.8905V35.012L238.305 35.9825C239.14 37.1347 239.255 37.0747 239.632 36.7686L240.163 36.3451C240.503 36.0434 240.769 36.2851 240.465 36.7088L236.601 41.9315ZM232.848 19.3479C232.848 18.9818 232.812 18.8009 232.623 18.4983L231.258 16.3146C231.183 16.1904 231.183 16.2537 231.067 16.3146L230.122 16.98V34.5276C230.122 35.1329 230.197 35.4357 230.462 35.8009L230.954 36.527C231.294 37.014 231.713 37.2557 232.206 36.8931L232.848 36.406V19.3479ZM254.448 37.4975L251.001 41.7507C250.62 42.2342 250.544 42.1133 250.089 41.6898L246.491 38.1662V45.2673L247.512 46.6682C247.627 46.7856 247.627 46.9101 247.512 47.0917L244.52 51.5224C244.444 51.5824 244.369 51.7033 244.216 51.5224L240.882 47.2126C240.769 47.0917 240.809 46.9701 240.882 46.7856L241.717 45.2673V19.167L240.882 17.5277C240.845 17.4635 240.809 17.4635 240.731 17.5277L239.593 18.4374C239.33 18.6801 239.14 18.3774 239.366 18.0748L243.231 12.8519C243.344 12.6703 243.497 12.6703 243.572 12.791L246.376 17.2217L251.454 12.8519C251.607 12.7301 251.72 12.791 251.756 12.8519L254.297 16.6174C254.485 16.9191 254.714 17.4061 254.714 17.9504V36.527C254.714 36.9531 254.714 37.1956 254.448 37.4975ZM249.938 19.5296C249.938 19.167 249.862 18.8609 249.712 18.6192L248.65 16.98C248.575 16.8591 248.5 16.8591 248.384 16.9191L246.491 18.0748V37.3166L247.552 37.8634C248.422 38.2871 248.801 38.2271 249.181 37.6827L249.56 37.1347C249.902 36.6479 249.938 36.1035 249.938 35.1329V19.5296ZM269.422 41.9315C269.269 42.1733 269.269 42.1133 269.156 41.9924L266.124 37.6827C265.822 37.2557 265.671 36.8931 265.671 36.1035V19.4688C265.671 19.2879 265.671 19.1036 265.518 18.9218L264.495 17.4635C264.381 17.3461 264.23 17.2852 264.08 17.4061L262.145 18.8609V34.5276C262.145 34.7694 262.106 35.012 262.26 35.1929L263.13 36.406C263.358 36.7088 263.736 37.0747 264.08 36.8931L264.381 36.7088C264.761 36.4661 264.835 36.8295 264.608 37.1347L261.123 41.9315C260.972 42.1733 260.932 42.1133 260.819 41.9924L257.75 37.6218C257.372 37.1347 257.372 37.014 257.372 36.2244V9.27089C257.372 8.96832 257.372 8.90479 257.181 8.66312L256.802 8.11519C256.422 7.57077 256.272 7.69169 255.781 8.05779L255.022 8.60222C254.909 8.66312 254.793 8.42039 254.984 8.11519L258.999 2.71329C259.152 2.47144 259.152 2.53234 259.266 2.65327L261.691 6.23674C261.995 6.72114 262.145 7.02389 262.145 7.81262V17.9504L267.185 12.8519C267.338 12.7301 267.487 12.7301 267.602 12.9119L270.065 16.5565C270.405 17.0409 270.481 17.4061 270.481 18.0113V34.6461C270.481 34.9513 270.481 35.012 270.67 35.2538L271.619 36.527C271.997 37.0747 272.148 36.9531 272.64 36.5903L273.399 36.0434C273.514 35.9825 273.626 36.2244 273.437 36.527L269.422 41.9315Z" fill="black"/>
</svg>
