<svg width="282" height="68" viewBox="0 0 282 68" fill="none" xmlns="http://www.w3.org/2000/svg">
<path d="M82.5975 0.871628C66.2594 0.980095 52.8952 17.8417 52.8952 32.5489C52.8952 48.0258 62.6917 66.9051 82.5975 66.8439C102.503 66.7826 112.835 46.4573 112.835 32.5489C112.835 17.1859 98.9357 0.763164 82.5975 0.871628ZM82.5975 1.44849C96.2719 1.44849 99.9611 15.4721 99.9611 32.5489C99.9611 55.0814 95.511 66.1978 82.5975 66.1766C69.6841 66.1554 65.4831 57.0571 65.4831 32.5489C65.4831 17.1964 68.9231 1.44849 82.5975 1.44849Z" fill="black"/>
<path d="M118.23 32.9646C118.157 16.2301 132.58 1.40653 144.79 0.671059C149.201 0.380921 154.87 2.25632 158.179 3.59228C160.583 4.5624 165.489 3.15819 166.36 0.582031H166.835V23.3776H166.36C166.36 22.4058 161.814 1.24418 144.79 1.24418C132.216 1.24418 131.001 21.7749 131.001 32.9646C131.001 44.1543 131.368 66.3061 146.041 66.3061C153.149 66.3061 158.411 63.4183 159.775 57.5763V39.8127H153.808V39.056H176.935V39.8127H171.231V65.783H170.767C170.767 65.783 169.839 62.0358 165.134 62.0483C159.119 62.0642 153.447 66.9163 146.533 66.8572C128.248 66.701 118.303 49.6991 118.23 32.9646V32.9646Z" fill="black"/>
<path d="M8.04052 3.11687H0.839478V2.36523H26.0651V3.11687H19.7366L37.761 48.5691C43.3972 32.4562 47.7636 20.5455 53.6395 3.11687H47.3798V2.36523H60.6991V3.11687H54.6336L32.7269 66.5316L8.04052 3.11687Z" fill="black"/>
<path d="M180.467 51.0057L180.353 3.04364H173.499V2.3252H198.751V3.04364H191.901L192.053 55.6315C193.57 61.6533 196.266 66.2224 205.477 66.2904C214.689 66.3585 220.951 61.2305 223.278 54.2226V3.04364H215.437L215.437 2.34636H279.615L279.748 25.3701H279.131C277.941 10.5045 271.764 4.88641 260.961 3.24741C257.243 2.68342 253.343 3.10151 248.413 3.06593V32.4503C252.707 32.7582 257.28 32.5063 260.361 30.0484C263.164 27.8133 263.956 22.6494 264.162 20.5515H264.705V46.1361H264.117C263.948 46.1361 263.722 39.7158 260.361 36.6697C256.978 33.6037 252.671 32.8499 248.413 33.5804V64.9693C254.427 64.9693 259.22 65.4422 263.383 64.3825C276.037 61.1612 280.491 51.2484 280.457 41.3062H281.161V65.7124H230.821V64.9693H236.513V3.04364H224.215V54.2226C222.822 59.1194 217.727 67.2207 204.672 67.1654C192.533 67.114 180.493 62.0323 180.467 51.0057V51.0057Z" fill="black"/>
</svg>
